<?xml version="1.0" encoding="utf-8"?>
<!-- Generator: Adobe Illustrator 27.5.0, SVG Export Plug-In . SVG Version: 6.00 Build 0)  -->
<svg version="1.1" xmlns="http://www.w3.org/2000/svg" xmlns:xlink="http://www.w3.org/1999/xlink" x="0px" y="0px"
	 viewBox="0 0 500 500" style="enable-background:new 0 0 500 500;" xml:space="preserve">
<g id="Background_Simple">
	<g>
		<path style="fill:#C6FF00;" d="M51.179,296.873c0,0,6.9,60.202,58.061,85.919c51.161,25.717,101.275,0.698,147.281-5.33
			c24.093-3.156,46.435,8.69,70.059,11.17c75.537,7.929,134.816-81.085,124.182-146.564c-9.205-56.686-45.428-96.694-111.431-125.24
			c-66.004-28.546-111.404-51.26-188.07-24.416C74.595,119.256,45.713,218.927,51.179,296.873z"/>
		<path style="opacity:0.8;fill:#FFFFFF;" d="M51.179,296.873c0,0,6.9,60.202,58.061,85.919
			c51.161,25.717,101.275,0.698,147.281-5.33c24.093-3.156,46.435,8.69,70.059,11.17c75.537,7.929,134.816-81.085,124.182-146.564
			c-9.205-56.686-45.428-96.694-111.431-125.24c-66.004-28.546-111.404-51.26-188.07-24.416
			C74.595,119.256,45.713,218.927,51.179,296.873z"/>
	</g>
</g>
<g id="Window">
	<g>
		<path style="fill:#B5B5B5;" d="M304.311,383.86h145.291V150.917H304.311V383.86z M380.12,327.852h63.764v-5.647H380.12v-51.992
			h63.764v-5.647H380.12V213.66h63.764v-5.647H380.12v-51.449h64.177v221.649H380.12V327.852z M309.616,156.564h65.198v51.449
			h-65.198V156.564z M309.616,213.66h65.198v50.905h-65.198V213.66z M309.616,270.212h65.198v51.992h-65.198V270.212z
			 M309.616,327.852h65.198v50.362h-65.198V327.852z"/>
		<path style="fill:#B5B5B5;" d="M449.109,145.582c-1.628-18.058-9.904-34.784-23.302-47.098
			c-13.483-12.391-31-19.215-49.325-19.215c-18.325,0-35.843,6.824-49.326,19.215c-13.398,12.314-21.673,29.039-23.302,47.098
			l-0.343,3.806h145.942L449.109,145.582z M311.261,142.403c1.982-13.453,7.909-25.438,16.532-34.852l40.967,34.852H311.261z
			 M372.287,136.235l-39.49-33.596c10.657-9.385,24.383-15.309,39.49-16.241V136.235z M379.272,86.316
			c14.263,0.583,27.355,5.617,37.878,13.821l-37.878,35.583V86.316z M382.357,142.403l40.086-37.656
			c10.099,9.782,17.073,22.829,19.258,37.656H382.357z"/>
	</g>
</g>
<g id="Plants">
	<path style="fill:#263238;" d="M134.037,302.729c-3.269,0.775-5.974,2.659-8.288,5.074c-1.95,2.036-3.576,4.37-4.995,6.8
		c-0.908,1.555-1.729,3.161-2.485,4.795c-0.493,1.064-0.862,2.395-1.33,3.61c-0.67,1.08-1.333,2.193-1.9,3.226
		c2.012-7.205,8.46-20.471,8.573-24.246c0.123-4.101-3.808,2.027-6.021,10.349c-1.671,6.284-2.51,11.98-2.82,14.394
		c-0.227,0.427-0.434,0.837-0.614,1.22c-0.396,0.844-1.085,2.272-2.001,4.132c1.952-6.12,2.734-13.39,1.524-14.291
		c-1.746-1.302-2.377,1.892-2.375,7.781c0.001,4.636-1.463,10.221-2.086,12.389c-1.102,2.178-2.333,4.582-3.649,7.111
		c1.38-4.411,2.183-10.763,2.938-15.518c1.1-6.927,0.629-9.083-1.612-5.759c-2.241,3.323-1.851,8.154-1.314,14.059
		c0.426,4.683-1.278,9.299-2.002,11.01c-1.694,3.203-3.484,6.52-5.295,9.774c1.11-2.415,2.455-6.118,2.886-10.566
		c0.775-8.008-0.254-15.355-2.1-13.269c-1.847,2.086-0.765,7.651-0.968,14.426c-0.179,5.982-1.167,11.102-1.396,12.22
		c-0.185,0.326-0.369,0.65-0.554,0.974c0.84-3.382,0.797-6.949,0.542-10.431c0.371-1.343,0.241-2.192-0.203-2.606
		c-0.064-1.506,0.061-3.773-0.584-4.927c-1.614-2.886-3.389,1.007-3.405,2.536c-0.012,1.176,0.087,2.347,0.238,3.514
		c-0.585,0.538-1.147,1.207-1.618,1.994c-0.245,0.408-0.503,0.869-0.772,1.367c0.03-0.484,0.057-0.971,0.076-1.464
		c0.043-1.143-0.136-2.707-0.799-3.77c0.941-1.997,1.754-4.046,2.093-6.15c0.115-0.716,0.156-1.488-0.184-2.132
		c-0.552-1.046-1.542-1.251-2.584-0.698c-3.08,1.634-3.905,5.553-4.249,8.694c-0.298,2.72-0.892,5.352-1.601,7.998
		c-0.634,2.368-1.178,4.515-1.544,5.981c-0.265-1.647-0.584-3.253-0.973-4.727c-0.342-1.297-0.674-2.539-1.003-3.748
		c-0.181-2.367-0.132-7.306,2.479-12.665c3.641-7.476,6.267-10.972,3.75-11.134c-2.517-0.162-6.183,3.773-6.706,9.933
		c-0.341,4.02-0.525,8.104-0.241,11.253c-0.798-2.869-1.584-5.575-2.409-8.322c-0.328-1.598-0.84-5.325,0.456-9.154
		c1.717-5.072,6.848-14.095,4.147-13.384c-2.7,0.711-5.943,5.937-6.3,11.476c-0.194,3.017,0.384,6.27,0.951,8.607
		c-0.594-1.938-1.214-3.926-1.88-6.035c-0.285-0.9-0.577-1.853-0.872-2.837c-0.022-0.165-0.047-0.333-0.077-0.505
		c-0.215-1.798-0.28-5.15,1.483-8.327c2.574-4.637,7.38-8.625,4.542-9.693c-2.838-1.067-7.117,6.494-7.36,10.27
		c-0.086,1.338,0.086,2.867,0.343,4.284c-0.109-0.292-0.224-0.587-0.346-0.884c-0.614-2.161-1.204-4.296-1.72-6.195
		c-0.117-1.537,0.005-4.373,1.636-8.111c2.52-5.779,5.727-12.397,2.459-10.712c-2.642,1.362-5.493,9.16-4.925,15.74
		c-0.229-0.857-0.425-1.601-0.582-2.197c-0.433-3.776-1.243-12.655-0.024-17.944c0.814-3.535,2.132-6.87,2.547-10.501
		c0.043-0.376,0.077-0.769-0.063-1.121c-0.879-2.193-3.73,2.069-4.198,2.773c-1.86,2.798-2.552,6.02-2.594,9.365
		c-0.036,2.819,0.368,5.635,0.99,8.379c0.398,1.757,0.894,3.491,1.456,5.201c0.366,1.114,1.004,2.339,1.492,3.546
		c0.247,1.247,0.522,2.512,0.813,3.654c-3.446-6.639-7.787-20.736-10.281-23.573c-2.709-3.081-1.4,4.081,2.661,11.673
		c3.068,5.734,6.342,10.47,7.762,12.446c0.126,0.467,0.254,0.909,0.384,1.311c0.286,0.887,0.757,2.401,1.357,4.386
		c-2.75-5.806-7.14-11.652-8.639-11.486c-2.164,0.24-0.446,3.005,3.574,7.308c3.165,3.388,5.907,8.469,6.93,10.479
		c0.681,2.345,1.422,4.941,2.186,7.687c-2.001-4.166-5.749-9.357-8.443-13.348c-3.924-5.814-5.739-7.068-5.109-3.109
		c0.63,3.959,4.212,7.223,8.634,11.173c3.507,3.133,5.412,7.67,6.051,9.415c0.948,3.497,1.903,7.143,2.8,10.757
		c-0.836-2.523-2.381-6.147-5.102-9.692c-4.898-6.382-10.665-11.051-10.591-8.265c0.074,2.786,4.662,6.114,9.138,11.205
		c3.951,4.495,6.724,8.911,7.319,9.885c0.087,0.364,0.174,0.728,0.26,1.09c-2.04-3.666-5.194-6.66-8.293-9.422
		c-1.091-0.973-2.742-3.092-4.146-3.541c-3.149-1.008-1.79,3.049-0.758,4.177c3.369,3.684,8.105,5.95,11.216,9.815
		c1.167,1.449,2.22,3.023,3.141,4.648c0.214,1.269,0.382,2.455,0.511,3.562c-1.189-1.183-3.589-3.093-3.761-3.209
		c-3.803-2.561-6.007-6.063-8.932-9.442c-0.878-1.014-2.374-2.253-3.783-2.317c-1.963-0.09-2.593,2.012-2.036,3.656
		c2.303,6.801,10.976,7.094,16.09,10.628c1.593,1.101,2.281,1.758,2.567,2.08c0.239,2.576,0.256,4.662,0.172,6.315H70.056v4.875
		h3.472l2.821,17.341h23.364l2.822-17.341h3.471v-4.875H88.428c0.803-0.966,1.658-2.023,2.524-3.138l3.701,0.111
		c0,0,12.832,0.563,17.548-1.972c4.716-2.536,0.506-4.982-3.994-3.689c-4.5,1.293-13.365,5.31-15.326,5.251
		c-0.914-0.027-1.399-0.042-1.66-0.05c0.915-1.187,1.833-2.431,2.707-3.691c1.862-0.456,5.844-1.524,10.407-3.32
		c3.698-1.455,7.968-2.639,11.145-5.103c0.573-0.444,1.129-0.981,1.32-1.683c0.31-1.141-0.273-1.967-1.412-2.274
		c-3.366-0.907-6.645,1.394-9.039,3.455c-2.074,1.785-4.305,3.303-6.629,4.754c-2.079,1.298-3.943,2.496-5.21,3.318
		c0.93-1.385,1.793-2.776,2.515-4.119c0.636-1.182,1.24-2.316,1.825-3.424c1.483-1.854,4.89-5.43,10.455-7.566
		c7.763-2.979,12.069-3.743,10.34-5.579c-1.73-1.836-7.095-1.462-11.68,2.684c-2.993,2.706-5.914,5.565-7.856,8.061
		c1.375-2.642,2.647-5.156,3.918-7.727c0.85-1.392,3.021-4.465,6.581-6.38c4.716-2.536,14.624-5.629,12.166-6.952
		c-2.459-1.323-8.396,0.284-12.437,4.089c-2.201,2.073-3.998,4.845-5.179,6.94c0.889-1.822,1.792-3.698,2.744-5.694
		c0.407-0.852,0.843-1.748,1.299-2.669c0.097-0.136,0.193-0.276,0.288-0.422c1.069-1.461,3.31-3.955,6.767-5.074
		c5.046-1.633,11.281-1.268,9.935-3.985c-1.346-2.717-9.633-0.11-12.388,2.484c-0.976,0.919-1.894,2.154-2.673,3.365
		c0.12-0.288,0.236-0.582,0.351-0.882c1.026-1.999,2.052-3.962,2.97-5.701c0.964-1.203,2.988-3.193,6.731-4.812
		c5.786-2.503,12.647-5.153,9.107-6.151c-2.861-0.807-10.266,2.946-14.342,8.144c0.418-0.783,0.782-1.461,1.074-2.003
		c2.261-3.055,7.728-10.098,12.229-13.132c3.007-2.028,6.247-3.566,9.028-5.937c0.287-0.245,0.581-0.51,0.718-0.862
		C139.851,301.365,134.859,302.534,134.037,302.729z M81.716,363.352c0.752-1.149,2.086-3.275,3.557-6.013
		c0.424,1.216,0.974,2.423,1.549,3.621c-1.364,2.79-2.606,5.215-3.319,5.841c-0.687,0.604-1.051,0.924-1.247,1.096
		C82.115,366.406,81.938,364.87,81.716,363.352z M90.225,371.435c-1.066,1.378-2.05,2.515-2.946,3.47h-4.559
		c-0.074-1.853-0.2-4.136-0.421-6.569l2.781-2.445c0,0,1.216-1.04,2.864-2.607c0.774,1.635,1.471,3.259,1.825,4.878
		C90.181,370.055,90.235,371.005,90.225,371.435z M94.004,361.823c-0.136,1.855-0.44,3.725-0.876,5.541
		c-0.709,1.074-1.396,2.055-2.058,2.952c-0.062-1.676-0.512-4.71-0.559-4.912c-0.326-1.412-0.471-2.783-0.512-4.14
		c1.285-1.308,2.63-2.771,3.784-4.227C93.999,358.63,94.121,360.224,94.004,361.823z"/>
</g>
<g id="Device">
	<g>
		<g>
			
				<path style="fill:#FFFFFF;stroke:#263238;stroke-width:1.1483;stroke-linecap:round;stroke-linejoin:round;stroke-miterlimit:10;" d="
				M368.02,363.307l16.186,26.077c2.063,3.323-0.327,7.62-4.239,7.62h-31.7h-42.411h41.046c3.901,0,6.293-4.275,4.251-7.599
				l-15.668-25.516L368.02,363.307z"/>
			
				<polygon style="fill:#263238;stroke:#263238;stroke-width:1.1483;stroke-linecap:round;stroke-linejoin:round;stroke-miterlimit:10;" points="
				368.02,363.307 335.485,363.888 341.51,373.699 374.47,373.699 			"/>
			
				<path style="fill:#FFFFFF;stroke:#263238;stroke-width:1.1483;stroke-linecap:round;stroke-linejoin:round;stroke-miterlimit:10;" d="
				M281.461,369.117H413.91c1.608,0,2.912-1.304,2.912-2.912V255.252c0-1.608-1.304-2.912-2.912-2.912H281.461
				c-1.608,0-2.912,1.304-2.912,2.912v110.953C278.549,367.813,279.853,369.117,281.461,369.117z"/>
			
				<path style="fill:#FFFFFF;stroke:#263238;stroke-width:1.1483;stroke-linecap:round;stroke-linejoin:round;stroke-miterlimit:10;" d="
				M276.232,369.117h132.449c1.608,0,2.912-1.304,2.912-2.912V255.252c0-1.608-1.304-2.912-2.912-2.912H276.232
				c-1.608,0-2.912,1.304-2.912,2.912v110.953C273.321,367.813,274.624,369.117,276.232,369.117z"/>
			
				<path style="fill:#263238;stroke:#263238;stroke-width:1.1483;stroke-linecap:round;stroke-linejoin:round;stroke-miterlimit:10;" d="
				M277.968,252.34h128.977c2.567,0,4.648,2.081,4.648,4.648v91.213H273.321v-91.213C273.321,254.421,275.402,252.34,277.968,252.34
				z"/>
			
				<rect x="279.13" y="256.988" transform="matrix(-1 -1.224647e-16 1.224647e-16 -1 684.9135 598.7988)" style="fill:#FFFFFF;stroke:#263238;stroke-width:1.1483;stroke-linecap:round;stroke-linejoin:round;stroke-miterlimit:10;" width="126.653" height="84.822"/>
		</g>
		<g>
			
				<rect x="237.74" y="391.164" style="fill:#FFFFFF;stroke:#263238;stroke-width:1.1483;stroke-linecap:round;stroke-linejoin:round;stroke-miterlimit:10;" width="4.022" height="1.341"/>
			
				<rect x="243.103" y="391.164" style="fill:#FFFFFF;stroke:#263238;stroke-width:1.1483;stroke-linecap:round;stroke-linejoin:round;stroke-miterlimit:10;" width="4.023" height="1.341"/>
			
				<rect x="248.466" y="391.164" style="fill:#FFFFFF;stroke:#263238;stroke-width:1.1483;stroke-linecap:round;stroke-linejoin:round;stroke-miterlimit:10;" width="4.022" height="1.341"/>
			
				<rect x="253.829" y="391.164" style="fill:#FFFFFF;stroke:#263238;stroke-width:1.1483;stroke-linecap:round;stroke-linejoin:round;stroke-miterlimit:10;" width="4.023" height="1.341"/>
			
				<rect x="259.193" y="391.164" style="fill:#FFFFFF;stroke:#263238;stroke-width:1.1483;stroke-linecap:round;stroke-linejoin:round;stroke-miterlimit:10;" width="4.022" height="1.341"/>
			
				<rect x="264.556" y="391.164" style="fill:#FFFFFF;stroke:#263238;stroke-width:1.1483;stroke-linecap:round;stroke-linejoin:round;stroke-miterlimit:10;" width="4.023" height="1.341"/>
			
				<rect x="269.919" y="391.164" style="fill:#FFFFFF;stroke:#263238;stroke-width:1.1483;stroke-linecap:round;stroke-linejoin:round;stroke-miterlimit:10;" width="4.022" height="1.341"/>
			
				<rect x="275.283" y="391.164" style="fill:#FFFFFF;stroke:#263238;stroke-width:1.1483;stroke-linecap:round;stroke-linejoin:round;stroke-miterlimit:10;" width="4.023" height="1.341"/>
			
				<rect x="280.646" y="391.164" style="fill:#FFFFFF;stroke:#263238;stroke-width:1.1483;stroke-linecap:round;stroke-linejoin:round;stroke-miterlimit:10;" width="4.023" height="1.341"/>
			
				<rect x="286.009" y="391.164" style="fill:#FFFFFF;stroke:#263238;stroke-width:1.1483;stroke-linecap:round;stroke-linejoin:round;stroke-miterlimit:10;" width="4.023" height="1.341"/>
			
				<rect x="291.373" y="391.164" style="fill:#FFFFFF;stroke:#263238;stroke-width:1.1483;stroke-linecap:round;stroke-linejoin:round;stroke-miterlimit:10;" width="4.022" height="1.341"/>
			
				<rect x="296.736" y="391.164" style="fill:#FFFFFF;stroke:#263238;stroke-width:1.1483;stroke-linecap:round;stroke-linejoin:round;stroke-miterlimit:10;" width="4.022" height="1.341"/>
			
				<rect x="302.099" y="391.164" style="fill:#FFFFFF;stroke:#263238;stroke-width:1.1483;stroke-linecap:round;stroke-linejoin:round;stroke-miterlimit:10;" width="4.022" height="1.341"/>
			
				<rect x="307.463" y="391.164" style="fill:#FFFFFF;stroke:#263238;stroke-width:1.1483;stroke-linecap:round;stroke-linejoin:round;stroke-miterlimit:10;" width="4.023" height="1.341"/>
			
				<rect x="312.826" y="391.164" style="fill:#FFFFFF;stroke:#263238;stroke-width:1.1483;stroke-linecap:round;stroke-linejoin:round;stroke-miterlimit:10;" width="4.022" height="1.341"/>
			
				<rect x="318.189" y="391.164" style="fill:#FFFFFF;stroke:#263238;stroke-width:1.1483;stroke-linecap:round;stroke-linejoin:round;stroke-miterlimit:10;" width="4.023" height="1.341"/>
			
				<rect x="323.553" y="391.164" style="fill:#FFFFFF;stroke:#263238;stroke-width:1.1483;stroke-linecap:round;stroke-linejoin:round;stroke-miterlimit:10;" width="4.022" height="1.341"/>
			
				<rect x="328.916" y="391.164" style="fill:#FFFFFF;stroke:#263238;stroke-width:1.1483;stroke-linecap:round;stroke-linejoin:round;stroke-miterlimit:10;" width="4.023" height="1.341"/>
			
				<rect x="334.279" y="391.164" style="fill:#FFFFFF;stroke:#263238;stroke-width:1.1483;stroke-linecap:round;stroke-linejoin:round;stroke-miterlimit:10;" width="4.023" height="1.341"/>
			
				<rect x="339.642" y="391.164" style="fill:#FFFFFF;stroke:#263238;stroke-width:1.1483;stroke-linecap:round;stroke-linejoin:round;stroke-miterlimit:10;" width="4.023" height="1.341"/>
			
				<rect x="345.006" y="391.164" style="fill:#FFFFFF;stroke:#263238;stroke-width:1.1483;stroke-linecap:round;stroke-linejoin:round;stroke-miterlimit:10;" width="4.023" height="1.341"/>
			
				<rect x="235.664" y="392.699" style="fill:#FFFFFF;stroke:#263238;stroke-width:1.1483;stroke-linecap:round;stroke-linejoin:round;stroke-miterlimit:10;" width="116.293" height="4.335"/>
			
				<rect x="323.59" y="392.699" style="fill:#263238;stroke:#263238;stroke-width:1.1483;stroke-linecap:round;stroke-linejoin:round;stroke-miterlimit:10;" width="28.367" height="4.335"/>
		</g>
	</g>
</g>
<g id="Text">
	<g>
		<path style="fill:#263238;" d="M294.254,309.478l17.796-42.086h10.677v42.086h4.627v8.897h-4.627v11.3h-9.609v-11.3h-18.863
			V309.478z M313.117,309.478v-23.402l-9.876,23.402H313.117z"/>
		<path style="fill:#263238;" d="M331.005,282.34c0-9.966,5.249-15.66,14.859-15.66c9.609,0,14.859,5.695,14.859,15.66v32.388
			c0,9.966-5.249,15.661-14.859,15.661c-9.609,0-14.859-5.694-14.859-15.661V282.34z M340.791,315.351
			c0,4.449,1.958,6.139,5.072,6.139c3.114,0,5.072-1.69,5.072-6.139v-33.634c0-4.449-1.958-6.139-5.072-6.139
			c-3.114,0-5.072,1.691-5.072,6.139V315.351z"/>
		<path style="fill:#263238;" d="M373.092,275.222c7.563,0,9.254-3.648,10.767-7.83h6.584v62.284h-9.788v-47.514h-7.563V275.222z"/>
	</g>
	<g>
		<path style="fill:#263238;" d="M293.127,419.634c0,1.469,0.583,2.354,1.911,2.354c1.305,0,1.887-0.885,1.887-2.354v-12.468h1.701
			v12.375c0,2.47-1.142,4.124-3.658,4.124c-2.494,0-3.636-1.654-3.636-4.124v-12.375h1.794V419.634z"/>
		<path style="fill:#263238;" d="M302.027,423.48h-1.632v-16.313h2.308l3.775,11.793v-11.793h1.608v16.313h-1.887l-4.172-13.19
			V423.48z"/>
		<path style="fill:#263238;" d="M311.79,420.194l-0.629,3.286h-1.678l3.122-16.313h2.634l3.122,16.313h-1.818l-0.629-3.286H311.79z
			 M312.024,418.632h3.636l-1.841-9.414L312.024,418.632z"/>
		<path style="fill:#263238;" d="M321.506,419.634c0,1.469,0.583,2.354,1.911,2.354c1.305,0,1.887-0.885,1.887-2.354v-12.468h1.701
			v12.375c0,2.47-1.142,4.124-3.658,4.124c-2.494,0-3.636-1.654-3.636-4.124v-12.375h1.794V419.634z"/>
		<path style="fill:#263238;" d="M331.153,423.48v-14.658h-3.007v-1.655h7.807v1.655h-3.006v14.658H331.153z"/>
		<path style="fill:#263238;" d="M339.005,416.139v7.341h-1.818v-16.313h1.818v7.341h4.009v-7.341h1.818v16.313h-1.818v-7.341
			H339.005z"/>
		<path style="fill:#263238;" d="M346.554,411.105c0-2.494,1.235-4.102,3.729-4.102c2.516,0,3.751,1.608,3.751,4.102v8.436
			c0,2.47-1.235,4.101-3.751,4.101c-2.494,0-3.729-1.63-3.729-4.101V411.105z M348.348,419.634c0,1.492,0.629,2.354,1.935,2.354
			c1.328,0,1.933-0.862,1.933-2.354v-8.622c0-1.468-0.605-2.354-1.933-2.354c-1.305,0-1.935,0.886-1.935,2.354V419.634z"/>
		<path style="fill:#263238;" d="M359.392,407.167c2.564,0,3.636,1.305,3.636,3.729v1.329c0,1.794-0.629,2.913-2.027,3.355
			c1.491,0.443,2.051,1.655,2.051,3.402v2.541c0,0.722,0.024,1.397,0.326,1.957h-1.841c-0.21-0.465-0.303-0.885-0.303-1.982v-2.564
			c0-1.84-0.862-2.422-2.377-2.422h-1.282v6.967h-1.818v-16.313H359.392z M358.925,414.857c1.446,0,2.308-0.466,2.308-2.237v-1.562
			c0-1.467-0.536-2.236-1.887-2.236h-1.772v6.035H358.925z"/>
		<path style="fill:#263238;" d="M366.754,407.167v16.313h-1.818v-16.313H366.754z"/>
		<path style="fill:#263238;" d="M375.772,423.48h-7.41v-1.632l5.592-13.026h-5.337v-1.655h7.202v1.632l-5.617,13.027h5.57V423.48z"
			/>
		<path style="fill:#263238;" d="M383.252,414.391v1.632h-3.986v5.803h4.894v1.654h-6.712v-16.313h6.712v1.655h-4.894v5.569H383.252
			z"/>
		<path style="fill:#263238;" d="M389.658,407.167c2.541,0,3.706,1.539,3.706,4.055v8.227c0,2.494-1.165,4.031-3.706,4.031h-3.822
			v-16.313H389.658z M389.635,421.826c1.304,0,1.933-0.816,1.933-2.308v-8.389c0-1.492-0.629-2.307-1.957-2.307h-1.958v13.004
			H389.635z"/>
	</g>
</g>
<g id="Character_1_">
	<g>
		<defs>
			<rect id="SVGID_1_" x="88.234" y="152.819" width="225.836" height="244.215"/>
		</defs>
		<clipPath id="SVGID_00000051347175718611945110000000352188995832769924_">
			<use xlink:href="#SVGID_1_"  style="overflow:visible;"/>
		</clipPath>
		<g style="clip-path:url(#SVGID_00000051347175718611945110000000352188995832769924_);">
			<g>
				
					<path style="fill:#B2B2B2;stroke:#263238;stroke-width:1.1483;stroke-linecap:round;stroke-linejoin:round;stroke-miterlimit:10;" d="
					M253.369,203.862c0,0,2.803,5.256,2.803,13.314c0,8.059-3.854,15.767-2.803,18.921c1.051,3.153,1.407,14.264-0.76,16.432
					c-1.239,1.239-6.503-0.361-6.503-0.361s-1.402,4.205-2.803,4.205s-5.256-0.701-6.657,1.752
					c-1.402,2.453,0.701,5.256-0.701,6.657c-1.401,1.401-3.153,2.453-3.153,2.453s-3.716,3.382-6.168,3.382
					c-2.453,0-14.55-8.52-14.55-8.52s-9.23,5.92-13.085,8.723c-3.854,2.803-5.989,12.418-5.989,12.418s-20.776-14.746-17.273-28.41
					c3.504-13.665,44.706-33.094,58.02-40.803C247.063,206.314,253.369,203.862,253.369,203.862z"/>
				
					<path style="fill:none;stroke:#263238;stroke-width:2.2966;stroke-linecap:round;stroke-linejoin:round;stroke-miterlimit:10;" d="
					M250.216,232.242c0,0,1.185-5.434-3.72-5.434"/>
				
					<path style="fill:none;stroke:#263238;stroke-width:2.2966;stroke-linecap:round;stroke-linejoin:round;stroke-miterlimit:10;" d="
					M245.563,221.212c-0.489-0.937,4.838-3.957,8.628-0.699"/>
				<path style="fill:#263238;" d="M249.623,232.078c-0.613,1.277-1.675,2.041-2.372,1.706c-0.696-0.335-0.764-1.641-0.15-2.918
					c0.614-1.277,1.676-2.04,2.372-1.706C250.169,229.495,250.236,230.801,249.623,232.078z"/>
				<g>
					
						<path style="fill:#FFFFFF;stroke:#263238;stroke-width:1.1483;stroke-linecap:round;stroke-linejoin:round;stroke-miterlimit:10;" d="
						M213.614,246.727c0,1.535-1.244,2.78-2.78,2.78c-1.535,0-2.779-1.244-2.779-2.78c0-1.535,1.244-2.779,2.779-2.779
						C212.369,243.948,213.614,245.192,213.614,246.727z"/>
					
						<line style="fill:#FFFFFF;stroke:#263238;stroke-width:1.1483;stroke-linecap:round;stroke-linejoin:round;stroke-miterlimit:10;" x1="210.834" y1="249.507" x2="210.834" y2="259.317"/>
					
						<path style="fill:#FFFFFF;stroke:#263238;stroke-width:1.1483;stroke-linecap:round;stroke-linejoin:round;stroke-miterlimit:10;" d="
						M210.671,256.047c0,0-4.251,12.099-3.597,13.08c0.654,0.981,7.685,0.491,8.175,0
						C215.739,268.637,210.671,256.047,210.671,256.047z"/>
				</g>
			</g>
			<g>
				<path style="fill:#B2B2B2;stroke:#263238;stroke-width:1.1483;stroke-linecap:round;stroke-miterlimit:10;" d="M229.421,301.441
					c0,0,8.734,5.635,6.48,5.917c-2.254,0.282-5.072-0.282-7.326-1.69c-2.254-1.409-4.79-1.69-6.762-1.69c-1.972,0-5.635,0-5.635,0
					s2.254-3.944,5.072-4.508S229.421,301.441,229.421,301.441z"/>
				<path style="fill:#B2B2B2;stroke:#263238;stroke-width:1.1483;stroke-linecap:round;stroke-miterlimit:10;" d="M228.857,296.933
					c0,0,11.833,5.635,11.551,7.044c-0.282,1.409-0.845,1.69-3.944,1.409c-3.099-0.282-9.298-3.944-9.298-3.944l-7.044-1.127
					C220.123,300.314,224.349,294.115,228.857,296.933z"/>
				<path style="fill:#B2B2B2;stroke:#263238;stroke-width:1.1483;stroke-linecap:round;stroke-miterlimit:10;" d="M199.274,300.314
					c0,0,11.27-5.917,13.806-7.325c2.536-1.409,7.607-0.845,11.27-0.845s15.496,0.282,16.059,2.536
					c0.564,2.254-3.381,2.817-7.325,2.817c-3.944,0-7.325-0.563-10.425,2.817c-3.099,3.381-4.79,7.889-4.79,7.889
					s5.353,1.127,9.016,1.127c3.663,0,9.298,1.409,8.734,3.099c-0.563,1.69-1.972,3.381-6.48,2.817
					c-4.508-0.563-10.706,0.282-15.496,0.564c-4.79,0.282-12.115-1.127-12.115-1.127L199.274,300.314z"/>
			</g>
			<path style="fill:#545454;stroke:#263238;stroke-width:1.1483;stroke-linecap:round;stroke-miterlimit:10;" d="M203.414,280.802
				c0,0,3.024,0,0.907,6.653s-3.326,19.354-3.326,19.354l-9.677-32.055L203.414,280.802z"/>
			
				<path style="fill:#C6FF00;stroke:#263238;stroke-width:1.1483;stroke-linecap:round;stroke-linejoin:round;stroke-miterlimit:10;" d="
				M196.566,276.149c0,0-11.093-12.512-22.292-17.931s-31.851,10.206-41.966,25.741c-10.115,15.534-32.333,93.929-38.836,108.741
				s18.605,24.205,46.423,27.456c27.817,3.251,49.855-14.451,55.996-26.011c6.142-11.56,8.309-47.687,7.225-71.53
				S201.263,284.819,196.566,276.149z"/>
			<g>
				
					<path style="fill:#C6FF00;stroke:#263238;stroke-width:1.1483;stroke-linecap:round;stroke-linejoin:round;stroke-miterlimit:10;" d="
					M167.219,319.227c2.124,11.445,14.976,71.01,15.666,72.388c0.723,1.445,6.227,16.627,27.095,13.367
					c11.561-1.806,17.702-6.864,23.482-13.005c5.78-6.142,25.288-40.1,25.288-40.1s2.168-0.361,7.226-3.252
					c3.28-1.874,8.414-6.821,12.396-5.937c3.253,0.722,6.639,0.714,9.952,0.614c2.719-0.082,5.94-0.206,7.998-2.263
					c1.691-1.691-1.854-1.382-2.8-1.461c-2.996-0.251-5.754-1.397-8.635-2.15c-0.905-0.237-4.304-1.524-5.183-1.085
					c0,0,1.445-0.723,2.529-1.445c1.084-0.723,2.857-0.606,5.024-0.606c1.372,0,3.56,0.128,5.673-0.147
					c0.873-0.013,10.393-1.403,7.829-3.975c-0.791-0.788-3.122-0.695-4.138-0.833c-5.325-0.723-10.264-0.784-15.617-0.304
					l6.539-2.735c1.397-0.194,2.855-0.249,4.194-0.257c0.803,0.039,1.707,0.053,2.628,0.007c1.598-0.001,5.53-0.554,6.325-2.138
					c1.272-2.536-9.588-3.689-11.159-3.689c-1.706,0-9.665,0.995-10.091,0.995c0,0-0.637,0.118-1.609,0.315c-0.19,0-0.295,0-0.295,0
					s7.587-2.168,10.838-2.168c3.251,0,7.587,1.084,8.67-2.168c1.084-3.251-7.225-2.168-14.451-1.806
					c-7.225,0.361-12.283,4.697-16.618,8.309c-4.335,3.613-12.644,19.147-21.676,27.095c-9.032,7.948-27.818,15.173-27.818,15.173
					s-10.858-61.453-15.555-79.155c-4.697-17.702-16.962-22.292-16.962-22.292"/>
				
					<path style="fill:#263238;stroke:#263238;stroke-width:1.1483;stroke-linecap:round;stroke-linejoin:round;stroke-miterlimit:10;" d="
					M288.324,343.301c2.719-0.082,5.94-0.206,7.998-2.263c1.691-1.691-1.854-1.382-2.8-1.461c-2.997-0.251-5.754-1.397-8.635-2.15
					c-0.905-0.237-4.304-1.524-5.183-1.085c0,0,1.445-0.723,2.529-1.445c1.084-0.723,2.857-0.606,5.024-0.606
					c1.372,0,3.56,0.128,5.673-0.147c0.873-0.013,10.393-1.402,7.829-3.974c-0.791-0.788-3.122-0.695-4.138-0.833
					c-5.325-0.723-10.264-0.784-15.617-0.304l6.539-2.735c1.397-0.194,2.855-0.249,4.194-0.257c0.803,0.039,1.707,0.053,2.628,0.007
					c1.598-0.001,5.53-0.554,6.325-2.139c1.272-2.536-9.588-3.688-11.159-3.688c-1.706,0-9.665,0.995-10.091,0.995
					c0,0-0.637,0.118-1.609,0.315c-0.19,0-0.295,0-0.295,0s7.587-2.168,10.838-2.168c3.251,0,7.587,1.084,8.67-2.168
					c1.084-3.251-7.225-2.168-14.451-1.806c-7.225,0.361-12.283,4.697-16.618,8.309c-4.335,3.613-12.644,19.147-21.676,27.095
					c-9.032,7.948-27.818,15.173-27.818,15.173s-5.062-27.673-9.767-50.845c-17.826,3.668-29.901,13.862-36.15,20.525
					c4.55,21.661,11.806,54.943,12.319,55.969c0.723,1.445,6.227,16.627,27.095,13.367c11.561-1.806,17.702-6.864,23.482-13.005
					c5.78-6.142,25.288-40.1,25.288-40.1s2.168-0.361,7.226-3.252c3.28-1.874,8.414-6.821,12.396-5.937
					C281.625,343.41,285.011,343.402,288.324,343.301z"/>
				
					<path style="fill:#B2B2B2;stroke:#263238;stroke-width:1.1483;stroke-linecap:round;stroke-linejoin:round;stroke-miterlimit:10;" d="
					M296.621,329.336c-5.325-0.723-10.264-0.784-15.617-0.304l6.539-2.735c1.397-0.194,2.855-0.249,4.194-0.257
					c0.803,0.039,1.707,0.053,2.628,0.007c1.598-0.001,5.53-0.554,6.325-2.139c1.272-2.536-9.588-3.688-11.159-3.688
					c-1.706,0-9.665,0.995-10.091,0.995c0,0-0.637,0.118-1.609,0.315c-0.19,0-0.295,0-0.295,0s7.587-2.168,10.838-2.168
					c3.251,0,7.587,1.084,8.67-2.168c1.084-3.251-7.225-2.168-14.451-1.806c-7.225,0.361-12.283,4.697-16.618,8.309
					c-4.335,3.613-12.644,19.147-21.676,27.095c-9.032,7.948-27.818,15.173-27.818,15.173s-4.162-22.753-8.446-44.273
					c-19.675,3.381-31.303,14.4-36.164,20.142c4.512,21.279,10.546,48.848,11.013,49.781c0.723,1.445,6.227,16.627,27.095,13.367
					c11.561-1.806,17.702-6.864,23.482-13.005c5.78-6.142,25.288-40.1,25.288-40.1s2.168-0.361,7.226-3.252
					c3.28-1.874,8.414-6.821,12.396-5.937c3.253,0.722,6.639,0.714,9.952,0.613c2.719-0.082,5.94-0.206,7.998-2.263
					c1.691-1.691-1.854-1.382-2.8-1.461c-2.997-0.251-5.754-1.397-8.635-2.15c-0.905-0.237-4.304-1.524-5.183-1.085
					c0,0,1.445-0.723,2.529-1.445c1.084-0.723,2.857-0.606,5.024-0.606c1.372,0,3.56,0.128,5.673-0.147
					c0.873-0.013,10.393-1.402,7.829-3.974C299.968,329.381,297.638,329.474,296.621,329.336z"/>
				
					<line style="fill:#FFFFFF;stroke:#263238;stroke-width:1.1483;stroke-linecap:round;stroke-linejoin:round;stroke-miterlimit:10;" x1="216.483" y1="365.965" x2="220.276" y2="384.571"/>
			</g>
			<g>
				<defs>
					<path id="XMLID_2_" d="M203.414,280.802c0,0-15.652-4.069-25.948-0.276c-10.296,3.793-39.016,142.519-39.016,142.519
						s-30.888-1.626-39.559-18.424c0,0,46.061-111.631,55.815-130.055c9.754-18.425,25.868-15.378,25.868-15.378L203.414,280.802z"
						/>
				</defs>
				<use xlink:href="#XMLID_2_"  style="overflow:visible;fill:#C6FF00;"/>
				<clipPath id="XMLID_00000170273809473629362910000004347879190021022628_">
					<use xlink:href="#XMLID_2_"  style="overflow:visible;"/>
				</clipPath>
				<path style="clip-path:url(#XMLID_00000170273809473629362910000004347879190021022628_);fill:#C6FF00;" d="M203.414,280.802
					c0,0-15.652-4.069-25.948-0.276c-10.296,3.793-39.016,142.519-39.016,142.519s-30.888-1.626-39.559-18.424
					c0,0,46.061-111.631,55.815-130.055c9.754-18.425,25.868-15.378,25.868-15.378L203.414,280.802z"/>
				<path style="opacity:0.5;clip-path:url(#XMLID_00000170273809473629362910000004347879190021022628_);fill:#FFFFFF;" d="
					M203.414,280.802c0,0-15.652-4.069-25.948-0.276c-10.296,3.793-39.016,142.519-39.016,142.519s-30.888-1.626-39.559-18.424
					c0,0,46.061-111.631,55.815-130.055c9.754-18.425,25.868-15.378,25.868-15.378L203.414,280.802z"/>
				
					<use xlink:href="#XMLID_2_"  style="overflow:visible;fill:none;stroke:#263238;stroke-width:1.1483;stroke-linecap:round;stroke-linejoin:round;stroke-miterlimit:10;"/>
			</g>
			
				<rect x="318.357" y="392.699" style="fill:#FFFFFF;stroke:#263238;stroke-width:1.1483;stroke-linecap:round;stroke-linejoin:round;stroke-miterlimit:10;" width="33.6" height="4.335"/>
			<g>
				
					<path style="fill:#263238;stroke:#263238;stroke-width:1.1483;stroke-linecap:round;stroke-linejoin:round;stroke-miterlimit:10;" d="
					M256.944,203.758c0,0-4.335,15.173-25.288,25.289c-20.954,10.115-29.624,16.257-35.404,20.953
					c-5.78,4.696-9.754,11.922-23.482,3.613c-13.728-8.309-11.561-37.572-6.864-52.383c4.697-14.812,16.618-31.43,43.352-30.708
					s49.855,17.702,50.938,24.566C261.28,201.951,256.944,203.758,256.944,203.758z"/>
				<g>
					<path style="fill:#FFFFFF;" d="M188.813,196.914c0,2.81-2.495,5.089-5.573,5.089c-3.078,0-5.573-2.278-5.573-5.089
						s2.495-5.088,5.573-5.088C186.317,191.825,188.813,194.104,188.813,196.914z"/>
					
						<path style="fill:#263238;stroke:#263238;stroke-width:1.1483;stroke-linecap:round;stroke-linejoin:round;stroke-miterlimit:10;" d="
						M183.427,211.653c0,0,3.356-10.231-4.383-12.964c-7.739-2.734-8.188,3.651-29.004,12.741
						c-20.816,9.09-34.975,12.47-38.891,23.397c-3.916,10.927,3.998,16.707,3.998,16.707s-15.687,7.377-18.676,18.783
						c-2.989,11.406,6.308,23.391,27.973,28.395c21.665,5.004,37.307-4.648,42.195-12.821c4.888-8.172,6.282-18.995,6.282-18.995
						s5.5,5.517,12.216-8.89C191.852,243.6,183.427,211.653,183.427,211.653z"/>
					<g style="opacity:0.25;">
						
							<path style="fill:none;stroke:#FFFFFF;stroke-width:1.1483;stroke-linecap:round;stroke-linejoin:round;stroke-miterlimit:10;" d="
							M189.388,250.361c3.251-13.728-5.058-49.132-5.058-49.132"/>
						
							<path style="fill:none;stroke:#FFFFFF;stroke-width:1.1483;stroke-linecap:round;stroke-linejoin:round;stroke-miterlimit:10;" d="
							M154.405,294.564c-14.637,3.202-24.993-14.234-14.831-25.54c3.586-3.99,9.26-5.988,14.555-5.127
							c3.024,0.492,6.123,2.101,7.267,4.943c0.798,1.982,0.517,4.259-0.241,6.257c-2.335,6.158-17.896,14.217-17.896,2.506
							c0-5.331,7.937-10.532,9.692-6.785c1.756,3.748,0.485,6.3-2.423,6.3"/>
						
							<path style="fill:none;stroke:#FFFFFF;stroke-width:1.1483;stroke-linecap:round;stroke-linejoin:round;stroke-miterlimit:10;" d="
							M157.313,238.348c-3.877,0-5.815,9.692,0.969,10.662c6.785,0.969,17.559-3.165,9.692-13.085
							c-3.926-4.951-20.839-7.269-25.685,1.939c-4.846,9.208,0.969,20.838,16.962,23.262c10.852,1.644,25.422-1.588,26.168-15.023
							c0.485-8.723,0.485-36.831,0.485-36.831"/>
						
							<path style="fill:none;stroke:#FFFFFF;stroke-width:1.1483;stroke-linecap:round;stroke-linejoin:round;stroke-miterlimit:10;" d="
							M135.505,230.595c0,0-16.961,10.177-11.631,20.354c5.331,10.177,28.592,8.723,28.592,8.723"/>
						
							<path style="fill:none;stroke:#FFFFFF;stroke-width:1.1483;stroke-linecap:round;stroke-linejoin:round;stroke-miterlimit:10;" d="
							M127.751,255.31c0,0-18.9,2.423-15.992,20.839"/>
					</g>
				</g>
			</g>
		</g>
	</g>
	
		<line style="fill:none;stroke:#263238;stroke-width:1.1483;stroke-linecap:round;stroke-linejoin:round;stroke-miterlimit:10;" x1="62.736" y1="397.121" x2="427.823" y2="397.121"/>
</g>
</svg>
