<?xml version="1.0" encoding="utf-8"?>
<!-- Generator: Adobe Illustrator 27.5.0, SVG Export Plug-In . SVG Version: 6.00 Build 0)  -->
<svg version="1.1" xmlns="http://www.w3.org/2000/svg" xmlns:xlink="http://www.w3.org/1999/xlink" x="0px" y="0px"
	 viewBox="0 0 500 500" style="enable-background:new 0 0 500 500;" xml:space="preserve">
<g id="Background_Simple">
	<g>
		<path style="fill:#C6FF00;" d="M270.557,49.518c0,0-70.997-8.668-126.407,43.027c-55.41,51.694-70.289,132.914-84.078,198.396
			c-13.789,65.481,16.523,122.113,72.08,138.546c55.557,16.433,79.301-31.558,147.631-49.007
			c68.331-17.449,89.179-11.726,137.001-63.634c47.822-51.908,36.257-146.488-24.971-204.621
			C330.586,54.092,270.557,49.518,270.557,49.518z"/>
		<path style="opacity:0.7;fill:#FFFFFF;" d="M270.557,49.518c0,0-70.997-8.668-126.407,43.027
			c-55.41,51.694-70.289,132.914-84.078,198.396c-13.789,65.481,16.523,122.113,72.08,138.546
			c55.557,16.433,79.301-31.558,147.631-49.007c68.331-17.449,89.179-11.726,137.001-63.634
			c47.822-51.908,36.257-146.488-24.971-204.621C330.586,54.092,270.557,49.518,270.557,49.518z"/>
	</g>
</g>
<g id="Landscape">
	<g>
		
			<path style="fill:none;stroke:#263238;stroke-width:1.2035;stroke-linecap:round;stroke-linejoin:round;stroke-miterlimit:10;" d="
			M66.234,367.776c29.328-9.021,91.047-26.838,125.107-28.18c45.757-1.802,123.128,34.239,171.381,40.547
			c48.253,6.307,80.699,4.505,80.699,4.505"/>
		
			<path style="fill:none;stroke:#263238;stroke-width:1.2035;stroke-linecap:round;stroke-linejoin:round;stroke-miterlimit:10;" d="
			M49.911,372.935c0,0,2.535-0.836,6.977-2.243"/>
		
			<path style="fill:none;stroke:#263238;stroke-width:1.2035;stroke-linecap:round;stroke-linejoin:round;stroke-miterlimit:10;" d="
			M430.389,316.775c-11.81-2.801-30.471-6.042-51.509-5.278c-35.79,1.298-74.483,6.43-122.402,13.114
			c-47.919,6.684-116.085-30.259-162.452-16.554c-46.367,13.704-42.867,17.838-42.867,17.838"/>
		
			<path style="fill:none;stroke:#263238;stroke-width:1.2035;stroke-linecap:round;stroke-linejoin:round;stroke-miterlimit:10;" d="
			M443.582,320.487c0,0-1.807-0.643-5.077-1.587"/>
	</g>
	<g style="display:none;">
		<g style="display:inline;">
			<g>
				<path style="fill:none;stroke:#263238;stroke-linecap:round;stroke-linejoin:round;stroke-miterlimit:10;" d="M100.148,342.69
					l69.017-58.207c2.563-2.162,6.001-2.362,8.741-0.509l86.963,58.792l43.655-29.756c2.264-1.543,5.061-1.637,7.4-0.247
					l50.315,29.898"/>
				<path style="fill:none;stroke:#263238;stroke-linecap:round;stroke-linejoin:round;stroke-miterlimit:10;" d="M346.223,330.648
					l16.994-6.818c1.972-0.791,4.141-0.62,6,0.474l31.489,18.526"/>
				<path style="fill:none;stroke:#263238;stroke-linecap:round;stroke-linejoin:round;stroke-miterlimit:10;" d="M132.948,314.833
					l-7.578-4.971c-2.609-1.609-5.784-1.393-8.209,0.559L77.058,342.69"/>
			</g>
			
				<line style="fill:none;stroke:#263238;stroke-linecap:round;stroke-linejoin:round;stroke-miterlimit:10;" x1="71.071" y1="342.766" x2="416.138" y2="342.766"/>
		</g>
		<g style="display:inline;">
			
				<line style="fill:none;stroke:#263238;stroke-linecap:round;stroke-linejoin:round;stroke-miterlimit:10;" x1="291.242" y1="329.852" x2="292.734" y2="328.852"/>
			
				<line style="fill:none;stroke:#263238;stroke-linecap:round;stroke-linejoin:round;stroke-miterlimit:10;" x1="271.881" y1="342.828" x2="289.271" y2="331.173"/>
		</g>
		<g style="display:inline;">
			
				<line style="fill:none;stroke:#263238;stroke-linecap:round;stroke-linejoin:round;stroke-miterlimit:10;" x1="148.097" y1="309.489" x2="151.101" y2="306.92"/>
			
				<line style="fill:none;stroke:#263238;stroke-linecap:round;stroke-linejoin:round;stroke-miterlimit:10;" x1="109.108" y1="342.828" x2="144.126" y2="312.884"/>
		</g>
	</g>
</g>
<g id="Clouds">
	<g>
		<g>
			
				<path style="fill:none;stroke:#263238;stroke-width:1.2035;stroke-linecap:round;stroke-linejoin:round;stroke-miterlimit:10;" d="
				M287.109,91.504c-1.118-4.567-5.227-7.961-10.139-7.961c-4.912,0-9.021,3.394-10.139,7.961H287.109z"/>
			
				<path style="fill:none;stroke:#263238;stroke-width:1.2035;stroke-linecap:round;stroke-linejoin:round;stroke-miterlimit:10;" d="
				M389.561,91.504c-1.24-5.237-5.653-9.244-11.104-9.862c0.334-1.804,0.518-3.662,0.518-5.563
				c0-16.763-13.589-30.353-30.352-30.353c-14.941,0-27.351,10.799-29.875,25.014c-3.292-2.57-7.422-4.116-11.922-4.116
				c-10.718,0-19.406,8.688-19.406,19.406c0,1.903,0.286,3.736,0.796,5.474H389.561z"/>
		</g>
		<g>
			
				<path style="fill:none;stroke:#263238;stroke-width:1.2035;stroke-linecap:round;stroke-linejoin:round;stroke-miterlimit:10;" d="
				M106.648,115.848c-0.567-2.319-2.653-4.041-5.147-4.041c-2.493,0-4.579,1.723-5.147,4.041H106.648z"/>
			
				<path style="fill:none;stroke:#263238;stroke-width:1.2035;stroke-linecap:round;stroke-linejoin:round;stroke-miterlimit:10;" d="
				M158.656,115.848c-0.63-2.658-2.869-4.692-5.637-5.006c0.17-0.916,0.263-1.859,0.263-2.824c0-8.509-6.898-15.408-15.408-15.408
				c-7.584,0-13.884,5.482-15.165,12.698c-1.671-1.305-3.768-2.089-6.052-2.089c-5.44,0-9.851,4.41-9.851,9.851
				c0,0.966,0.145,1.896,0.404,2.778H158.656z"/>
		</g>
		<g>
			
				<path style="fill:none;stroke:#263238;stroke-width:1.2035;stroke-linecap:round;stroke-linejoin:round;stroke-miterlimit:10;" d="
				M153.42,132.133c-0.358-1.463-1.675-2.551-3.248-2.551c-1.574,0-2.89,1.087-3.248,2.551H153.42z"/>
			
				<path style="fill:none;stroke:#263238;stroke-width:1.2035;stroke-linecap:round;stroke-linejoin:round;stroke-miterlimit:10;" d="
				M186.246,132.133c-0.397-1.678-1.811-2.962-3.558-3.16c0.107-0.578,0.166-1.173,0.166-1.782c0-5.371-4.354-9.725-9.725-9.725
				c-4.787,0-8.763,3.46-9.572,8.015c-1.055-0.824-2.378-1.319-3.82-1.319c-3.434,0-6.218,2.784-6.218,6.217
				c0,0.61,0.092,1.197,0.255,1.754H186.246z"/>
		</g>
	</g>
</g>
<g id="Character">
	<g>
		<path style="fill:#C6FF00;" d="M343.326,404.941c-0.325,0-0.646,0.005-0.97,0.007c-15.825-14.565-59.632-25.036-111.202-25.036
			c-64.903,0-117.518,16.585-117.518,37.044c0,20.459,52.615,37.044,117.518,37.044c43.181,0,80.915-7.343,101.341-18.281
			c3.514,0.168,7.13,0.26,10.831,0.26c32.948,0,59.658-6.948,59.658-15.519C402.983,411.889,376.274,404.941,343.326,404.941z"/>
		<path style="opacity:0.5;fill:#FFFFFF;" d="M343.326,404.941c-0.325,0-0.646,0.005-0.97,0.007
			c-15.825-14.565-59.632-25.036-111.202-25.036c-64.903,0-117.518,16.585-117.518,37.044c0,20.459,52.615,37.044,117.518,37.044
			c43.181,0,80.915-7.343,101.341-18.281c3.514,0.168,7.13,0.26,10.831,0.26c32.948,0,59.658-6.948,59.658-15.519
			C402.983,411.889,376.274,404.941,343.326,404.941z"/>
	</g>
	<g>
		<g>
			<g>
				<defs>
					<path id="XMLID_8_" d="M307.031,255.564c0,0,3.349,29.47,18.754,36.837c15.405,7.367,24.112-4.019,24.112-14.4
						c0-10.381,17.414-20.093,30.14-20.093c12.726,0,16.409,17.079,11.051,31.144c-5.358,14.065-12.056,30.81-37.172,38.847
						c-25.116,8.037-39.851-2.679-39.851-2.679s3.684,7.368,0,8.372c-3.684,1.005-14.065-10.382-14.065-10.382
						s4.688,10.047-0.67,6.698c-5.358-3.349-11.051-23.107-11.051-23.107s0.335,7.033-4.019,7.702
						c-4.354,0.67-6.698-14.4-6.698-14.4l27.796-51.237L307.031,255.564z"/>
				</defs>
				<use xlink:href="#XMLID_8_"  style="overflow:visible;fill:#FFFFFF;"/>
				<clipPath id="XMLID_00000127727394344018019190000002384435859645113250_">
					<use xlink:href="#XMLID_8_"  style="overflow:visible;"/>
				</clipPath>
				<g style="clip-path:url(#XMLID_00000127727394344018019190000002384435859645113250_);">
					<path style="fill:#C6FF00;" d="M366.874,305.886c-4.429,0-8.019,3.59-8.019,8.019c0,4.429,3.59,8.019,8.019,8.019
						c0.128,0,0.252-0.013,0.379-0.019c2.698-1.648,5.072-3.435,7.174-5.325c0.297-0.838,0.467-1.736,0.467-2.676
						C374.894,309.476,371.303,305.886,366.874,305.886z"/>
					<path style="fill:#C6FF00;" d="M349.272,282.842c-2.245,8.628-10.478,15.782-23.487,9.56c-0.57-0.273-1.119-0.585-1.657-0.915
						c-0.352,1.321-0.558,2.702-0.558,4.135c0,8.858,7.181,16.039,16.039,16.039c8.858,0,16.039-7.181,16.039-16.039
						C355.647,290.397,353.138,285.77,349.272,282.842z"/>
					<path style="fill:#C6FF00;" d="M319.079,327.378c0-6.201-5.027-11.227-11.227-11.227c-6.079,0-11.017,4.834-11.209,10.867
						c0.886,1.307,1.79,2.332,2.686,2.892c5.358,3.349,0.67-6.698,0.67-6.698s10.381,11.386,14.065,10.382
						c3.684-1.005,0-8.372,0-8.372s1.724,1.253,4.994,2.58C319.063,327.659,319.079,327.52,319.079,327.378z"/>
				</g>
				<path style="opacity:0.2;clip-path:url(#XMLID_00000127727394344018019190000002384435859645113250_);" d="M389.398,273.19
					c-6.127,7.799-16.154,40.664-41.778,47.906c-25.624,7.242-49.02-9.47-49.02-9.47s3.899-3.899,11.698-17.268
					c2.448-4.196,4.236-8.172,5.539-11.654c-7.004-11.354-8.806-27.139-8.806-27.139l-1.674-6.698l-27.795,51.237
					c0,0,2.344,15.07,6.698,14.4c4.353-0.67,4.019-7.702,4.019-7.702s5.693,19.758,11.051,23.107c5.358,3.349,0.67-6.698,0.67-6.698
					s10.381,11.386,14.065,10.382c3.684-1.005,0-8.372,0-8.372s14.735,10.716,39.851,2.679
					c25.117-8.037,31.814-24.781,37.172-38.847c2.1-5.514,2.805-11.488,2.126-16.718
					C391.543,271.942,390.213,272.151,389.398,273.19z"/>
				
					<use xlink:href="#XMLID_8_"  style="overflow:visible;fill:none;stroke:#263238;stroke-width:1.2035;stroke-linecap:round;stroke-linejoin:round;stroke-miterlimit:10;"/>
			</g>
			
				<path style="fill:#FFFFFF;stroke:#263238;stroke-width:1.2035;stroke-linecap:round;stroke-linejoin:round;stroke-miterlimit:10;" d="
				M383.217,299.434L383.217,299.434c-2.22,0-4.019-1.799-4.019-4.019v-62.958h8.037v62.958
				C387.236,297.635,385.437,299.434,383.217,299.434z"/>
			
				<rect x="328.319" y="129.313" style="fill:#263238;stroke:#263238;stroke-width:1.2035;stroke-linecap:round;stroke-linejoin:round;stroke-miterlimit:10;" width="110.512" height="107.833"/>
			<g>
				<path style="fill:#FFFFFF;" d="M364.348,152.541v0.58h-5.978v9.402h7.109v0.609h-7.748V142.82h7.748v0.609h-7.109v9.112H364.348
					z"/>
				<path style="fill:#FFFFFF;" d="M371.777,142.82c3.019,0,4.179,1.77,4.179,4.556v1.828c0,2.495-0.987,3.86-3.221,4.266
					c2.263,0.348,3.221,1.828,3.221,4.063v3.192c0,0.783,0.086,1.77,0.552,2.409h-0.697c-0.406-0.638-0.494-1.538-0.494-2.409
					v-3.192c0-2.989-1.799-3.772-4.44-3.772h-2.496v9.373h-0.639V142.82H371.777z M370.878,153.15c2.815,0,4.44-0.725,4.44-3.86
					v-1.857c0-2.467-0.958-4.005-3.569-4.005h-3.366v9.721H370.878z"/>
				<path style="fill:#FFFFFF;" d="M382.804,142.82c3.019,0,4.18,1.77,4.18,4.556v1.828c0,2.495-0.987,3.86-3.221,4.266
					c2.263,0.348,3.221,1.828,3.221,4.063v3.192c0,0.783,0.086,1.77,0.551,2.409h-0.697c-0.406-0.638-0.493-1.538-0.493-2.409
					v-3.192c0-2.989-1.799-3.772-4.439-3.772h-2.496v9.373h-0.639V142.82H382.804z M381.906,153.15c2.815,0,4.439-0.725,4.439-3.86
					v-1.857c0-2.467-0.957-4.005-3.569-4.005h-3.366v9.721H381.906z"/>
				<path style="fill:#FFFFFF;" d="M389.771,147.811c0-3.366,1.479-5.136,4.294-5.136c2.873,0,4.353,1.77,4.353,5.136v10.331
					c0,3.366-1.48,5.137-4.353,5.137c-2.815,0-4.294-1.77-4.294-5.137V147.811z M390.409,158.171c0,2.989,1.248,4.527,3.656,4.527
					c2.438,0,3.715-1.538,3.715-4.527v-10.389c0-2.989-1.276-4.527-3.715-4.527c-2.408,0-3.656,1.538-3.656,4.527V158.171z"/>
				<path style="fill:#FFFFFF;" d="M404.745,142.82c3.019,0,4.179,1.77,4.179,4.556v1.828c0,2.495-0.987,3.86-3.221,4.266
					c2.263,0.348,3.221,1.828,3.221,4.063v3.192c0,0.783,0.086,1.77,0.551,2.409h-0.697c-0.406-0.638-0.493-1.538-0.493-2.409
					v-3.192c0-2.989-1.799-3.772-4.44-3.772h-2.496v9.373h-0.639V142.82H404.745z M403.846,153.15c2.815,0,4.44-0.725,4.44-3.86
					v-1.857c0-2.467-0.958-4.005-3.569-4.005h-3.366v9.721H403.846z"/>
			</g>
			
				<path style="fill:#FFFFFF;stroke:#263238;stroke-width:1.2035;stroke-linecap:round;stroke-linejoin:round;stroke-miterlimit:10;" d="
				M381.181,277.378c0,0,14.172-7.755,20.055-2.674c5.883,5.081,3.476,13.103-1.07,14.975c-4.546,1.872-14.44,4.279-19.788,2.407
				C375.031,290.214,370.485,282.459,381.181,277.378z"/>
			
				<path style="fill:#FFFFFF;stroke:#263238;stroke-width:1.2035;stroke-linecap:round;stroke-linejoin:round;stroke-miterlimit:10;" d="
				M375.012,256.904c0,0,17.749-9.712,25.116-3.349c7.367,6.363,4.354,16.409-1.34,18.754c-5.693,2.344-18.084,5.358-24.781,3.014
				C367.31,272.978,361.617,263.267,375.012,256.904z"/>
			<g>
				<path style="fill:#C6FF00;" d="M342.364,208.679l14.21-33.608h8.527v33.608h3.695v7.106h-3.695v9.024h-7.674v-9.024h-15.063
					V208.679z M357.427,208.679v-18.687l-7.886,18.687H357.427z"/>
				<path style="fill:#C6FF00;" d="M371.708,187.008c0-7.958,4.192-12.505,11.866-12.505c7.673,0,11.866,4.547,11.866,12.505v25.863
					c0,7.958-4.192,12.506-11.866,12.506c-7.674,0-11.866-4.547-11.866-12.506V187.008z M379.523,213.369
					c0,3.553,1.564,4.903,4.051,4.903c2.486,0,4.05-1.35,4.05-4.903v-26.858c0-3.553-1.564-4.903-4.05-4.903
					c-2.487,0-4.051,1.35-4.051,4.903V213.369z"/>
				<path style="fill:#C6FF00;" d="M398.637,208.679l14.21-33.608h8.527v33.608h3.695v7.106h-3.695v9.024h-7.674v-9.024h-15.063
					V208.679z M413.701,208.679v-18.687l-7.886,18.687H413.701z"/>
			</g>
			<g>
				
					<path style="fill:#FFFFFF;stroke:#263238;stroke-width:1.2035;stroke-linecap:round;stroke-linejoin:round;stroke-miterlimit:10;" d="
					M350.901,284.03c0,0-3.684-18.754,2.679-29.805c6.363-11.051,22.102-4.019,27.126,7.702c5.023,11.721,2.009,24.112-7.702,24.112
					c-9.712,0-11.386-15.405-11.386-15.405"/>
				
					<path style="fill:#FFFFFF;stroke:#263238;stroke-width:1.2035;stroke-linecap:round;stroke-linejoin:round;stroke-miterlimit:10;" d="
					M377.872,281.66c0,0,0.969,6.395-1.705,10.926c-0.482,0.816-1.481,1.17-2.361,0.816l0,0c-0.637-0.256-1.086-0.833-1.173-1.514
					c-0.251-1.955-0.944-6.103-2.549-8.789c-0.821-1.374-0.861-3.131-0.02-4.494c0.493-0.799,1.285-1.482,2.558-1.695
					C376.26,276.301,377.555,277.764,377.872,281.66z"/>
			</g>
		</g>
		<g>
			<g>
				<defs>
					<path id="XMLID_7_" d="M203.385,311.411v70.75c0,0-20.717,14.854-30.098,18.762c-9.381,3.909-24.235-5.472-33.225,1.954
						c-8.99,7.427-5.863,19.153,5.082,20.326c0,0,0,6.254,5.472,8.99c5.472,2.736,10.945,0.391,10.945,0.391
						s0.782,9.381,12.117,8.599c11.336-0.782,14.072-9.772,20.326-18.763c6.254-8.99,10.163-17.199,19.544-18.372
						c9.381-1.173,15.245-3.127,15.245-14.463c0-7.036-7.036-7.427-7.818-14.463c-0.782-7.036,0-60.978,0-60.978L203.385,311.411z"
						/>
				</defs>
				<use xlink:href="#XMLID_7_"  style="overflow:visible;fill:#FFFFFF;"/>
				<clipPath id="XMLID_00000165234589374570374970000017702983093802250169_">
					<use xlink:href="#XMLID_7_"  style="overflow:visible;"/>
				</clipPath>
				<g style="clip-path:url(#XMLID_00000165234589374570374970000017702983093802250169_);">
					<circle style="fill:#C6FF00;" cx="211.299" cy="385.438" r="5.132"/>
					<path style="fill:#C6FF00;" d="M210.657,328.019c0-2.303-1.867-4.17-4.17-4.17c-1.238,0-2.338,0.55-3.102,1.407v5.526
						c0.764,0.857,1.864,1.407,3.102,1.407C208.79,332.189,210.657,330.322,210.657,328.019z"/>
					<path style="fill:#C6FF00;" d="M217.714,347.586c-3.543,0-6.415,2.872-6.415,6.415c0,3.543,2.872,6.415,6.415,6.415
						c1.057,0,2.039-0.28,2.918-0.733c-0.01-3.539-0.003-7.411,0.014-11.358C219.764,347.869,218.777,347.586,217.714,347.586z"/>
				</g>
				<path style="opacity:0.2;clip-path:url(#XMLID_00000165234589374570374970000017702983093802250169_);" d="M228.793,389.588
					c0-7.036-7.036-7.427-7.818-14.463c-0.782-7.036,0-60.978,0-60.978l-17.59-2.736v22.709c3.706,2.333,8.511,4.511,13.329,4.243
					v40.664c0,0,3.342,8.913,1.114,16.154c-2.228,7.242-19.497,7.242-25.067,13.926c-5.57,6.684-9.47,20.61-15.04,26.738
					c-2.018,2.22-4.18,3.995-6.119,5.365c0.651,0.03,1.339,0.026,2.076-0.025c11.336-0.782,14.072-9.772,20.326-18.763
					c6.254-8.99,10.163-17.199,19.544-18.372C222.93,402.878,228.793,400.924,228.793,389.588z"/>
				
					<use xlink:href="#XMLID_7_"  style="overflow:visible;fill:none;stroke:#263238;stroke-width:1.2035;stroke-linecap:round;stroke-linejoin:round;stroke-miterlimit:10;"/>
			</g>
			
				<path style="fill:none;stroke:#263238;stroke-width:1.2035;stroke-linecap:round;stroke-linejoin:round;stroke-miterlimit:10;" d="
				M161.561,432.586c0,0-0.391-13.681,16.417-19.544"/>
			
				<path style="fill:none;stroke:#263238;stroke-width:1.2035;stroke-linecap:round;stroke-linejoin:round;stroke-miterlimit:10;" d="
				M145.143,423.204c0,0,0-10.945,18.372-15.245"/>
			
				<path style="fill:#FFFFFF;stroke:#263238;stroke-width:1.2035;stroke-linecap:round;stroke-linejoin:round;stroke-miterlimit:10;" d="
				M163.324,430.36c0,0-5.43,3.514-7.05,8.52c-0.292,0.902,0.106,1.885,0.954,2.309l0,0c0.614,0.307,1.343,0.261,1.911-0.125
				c1.63-1.108,5.195-3.338,8.27-3.918c1.573-0.297,2.915-1.432,3.378-2.964c0.271-0.898,0.258-1.945-0.427-3.039
				C168.405,428.015,166.451,428.015,163.324,430.36z"/>
			
				<path style="fill:#FFFFFF;stroke:#263238;stroke-width:1.2035;stroke-linecap:round;stroke-linejoin:round;stroke-miterlimit:10;" d="
				M147.153,423.684c0,0-5.43,3.513-7.05,8.519c-0.292,0.902,0.106,1.885,0.954,2.309l0,0c0.614,0.307,1.343,0.261,1.911-0.125
				c1.63-1.108,5.195-3.338,8.27-3.918c1.573-0.296,2.915-1.431,3.378-2.964c0.271-0.898,0.258-1.945-0.427-3.039
				C152.234,421.339,150.28,421.339,147.153,423.684z"/>
			
				<path style="fill:#FFFFFF;stroke:#263238;stroke-width:1.2035;stroke-linecap:round;stroke-linejoin:round;stroke-miterlimit:10;" d="
				M134.245,412.557c0,0-5.43,3.513-7.051,8.519c-0.292,0.902,0.106,1.885,0.954,2.309l0,0c0.615,0.307,1.343,0.261,1.911-0.125
				c1.63-1.108,5.195-3.339,8.27-3.918c1.573-0.296,2.915-1.431,3.378-2.964c0.271-0.898,0.257-1.945-0.427-3.039
				C139.327,410.212,137.372,410.212,134.245,412.557z"/>
		</g>
		<g>
			<g>
				<defs>
					<path id="XMLID_6_" d="M265.029,311.411v70.75c0,0,20.717,14.854,30.098,18.762c9.381,3.909,24.235-5.472,33.225,1.954
						c8.99,7.427,5.863,19.153-5.082,20.326c0,0,0,6.254-5.472,8.99c-5.472,2.736-10.945,0.391-10.945,0.391
						s-0.782,9.381-12.118,8.599c-11.336-0.782-14.072-9.772-20.326-18.763c-6.254-8.99-10.163-17.199-19.544-18.372
						c-9.381-1.173-15.244-3.127-15.244-14.463c0-7.036,7.036-7.427,7.818-14.463c0.782-7.036,0-60.978,0-60.978L265.029,311.411z"
						/>
				</defs>
				<use xlink:href="#XMLID_6_"  style="overflow:visible;fill:#FFFFFF;"/>
				<clipPath id="XMLID_00000106848955257985102270000005106396870701215917_">
					<use xlink:href="#XMLID_6_"  style="overflow:visible;"/>
				</clipPath>
				<g style="clip-path:url(#XMLID_00000106848955257985102270000005106396870701215917_);">
					<circle style="fill:#C6FF00;" cx="256.849" cy="376.456" r="5.132"/>
					<path style="fill:#C6FF00;" d="M247.729,341.667c0.787,0.491,1.708,0.786,2.704,0.786c2.835,0,5.132-2.298,5.132-5.132
						c0-2.835-2.298-5.132-5.132-5.132c-1.024,0-1.974,0.308-2.775,0.825C247.685,335.783,247.709,338.704,247.729,341.667z"/>
					<path style="fill:#C6FF00;" d="M265.029,348.522c-3.237,0.91-5.614,3.877-5.614,7.405s2.376,6.495,5.614,7.405V348.522z"/>
				</g>
				<path style="opacity:0.2;clip-path:url(#XMLID_00000106848955257985102270000005106396870701215917_);" d="M247.439,314.147
					c0,0,0.148,10.249,0.251,22.394c2.997,0.358,8.423,0.673,15.259-0.406c0,0-2.785,41.778-2.228,47.349
					c0.557,5.57,25.624,20.054,32.866,21.725c7.241,1.671,19.93,0.782,26.738,4.456c4.155,2.242,6.141,8.177,7.06,12.464
					c7.463-3.297,8.702-12.861,0.968-19.25c-8.99-7.427-23.844,1.954-33.225-1.954c-9.381-3.909-30.098-18.762-30.098-18.762v-70.75
					L247.439,314.147z"/>
				
					<use xlink:href="#XMLID_6_"  style="overflow:visible;fill:none;stroke:#263238;stroke-width:1.2035;stroke-linecap:round;stroke-linejoin:round;stroke-miterlimit:10;"/>
			</g>
			
				<path style="fill:none;stroke:#263238;stroke-width:1.2035;stroke-linecap:round;stroke-linejoin:round;stroke-miterlimit:10;" d="
				M306.853,432.586c0,0,0.391-13.681-16.417-19.544"/>
			
				<path style="fill:none;stroke:#263238;stroke-width:1.2035;stroke-linecap:round;stroke-linejoin:round;stroke-miterlimit:10;" d="
				M323.27,423.204c0,0,0-10.945-18.371-15.245"/>
			
				<path style="fill:#FFFFFF;stroke:#263238;stroke-width:1.2035;stroke-linecap:round;stroke-linejoin:round;stroke-miterlimit:10;" d="
				M305.09,430.36c0,0,5.43,3.514,7.05,8.52c0.292,0.902-0.106,1.885-0.954,2.309l0,0c-0.615,0.307-1.343,0.261-1.911-0.125
				c-1.63-1.108-5.195-3.338-8.27-3.918c-1.573-0.297-2.915-1.432-3.378-2.964c-0.271-0.898-0.257-1.945,0.427-3.039
				C300.008,428.015,301.963,428.015,305.09,430.36z"/>
			
				<path style="fill:#FFFFFF;stroke:#263238;stroke-width:1.2035;stroke-linecap:round;stroke-linejoin:round;stroke-miterlimit:10;" d="
				M321.261,423.684c0,0,5.43,3.513,7.051,8.519c0.292,0.902-0.106,1.885-0.954,2.309l0,0c-0.614,0.307-1.343,0.261-1.911-0.125
				c-1.63-1.108-5.195-3.338-8.27-3.918c-1.573-0.296-2.915-1.431-3.378-2.964c-0.271-0.898-0.258-1.945,0.426-3.039
				C316.18,421.339,318.134,421.339,321.261,423.684z"/>
			
				<path style="fill:#FFFFFF;stroke:#263238;stroke-width:1.2035;stroke-linecap:round;stroke-linejoin:round;stroke-miterlimit:10;" d="
				M334.169,412.557c0,0,5.43,3.513,7.05,8.519c0.292,0.902-0.106,1.885-0.954,2.309l0,0c-0.614,0.307-1.343,0.261-1.911-0.125
				c-1.63-1.108-5.195-3.339-8.27-3.918c-1.573-0.296-2.915-1.431-3.378-2.964c-0.271-0.898-0.258-1.945,0.426-3.039
				C329.087,410.212,331.042,410.212,334.169,412.557z"/>
		</g>
		<g>
			
				<path style="fill:#FFFFFF;stroke:#263238;stroke-width:1.2035;stroke-linecap:round;stroke-linejoin:round;stroke-miterlimit:10;" d="
				M134.722,349.168c0,0-0.21-8.624,2.104-11.358c2.314-2.734,5.048,9.886,4.838,11.569
				C141.453,351.061,138.508,354.006,134.722,349.168z"/>
			
				<path style="fill:#FFFFFF;stroke:#263238;stroke-width:1.2035;stroke-linecap:round;stroke-linejoin:round;stroke-miterlimit:10;" d="
				M149.867,346.224c0,0-0.21-8.624,2.103-11.358c2.314-2.734,5.048,9.886,4.838,11.569
				C156.598,348.117,153.653,351.061,149.867,346.224z"/>
			
				<path style="fill:#FFFFFF;stroke:#263238;stroke-width:1.2035;stroke-linecap:round;stroke-linejoin:round;stroke-miterlimit:10;" d="
				M133.455,357.865c0,0-2.741-12.528,3.915-13.311c6.656-0.783,12.137,22.708,12.137,22.708s-4.698-25.057,3.524-25.84
				c8.222-0.783,9.005,22.708,9.005,24.665c0,1.958-7.047,10.571-17.618,12.92C133.846,381.355,133.455,357.865,133.455,357.865z"/>
			
				<path style="fill:#FFFFFF;stroke:#263238;stroke-width:1.2035;stroke-linecap:round;stroke-linejoin:round;stroke-miterlimit:10;" d="
				M124.836,355.058c0,0-0.21-8.624,2.103-11.359c2.314-2.734,5.048,9.886,4.838,11.569
				C131.567,356.951,128.622,359.896,124.836,355.058z"/>
			<g>
				<defs>
					<path id="XMLID_5_" d="M165.167,241.586c0,0-9.788,8.222-15.269,25.448c-5.481,17.226-7.439,25.057-1.958,23.882
						c5.481-1.175,7.439-7.83,7.439-7.83s-6.656,19.576-3.132,21.142c3.523,1.566,8.222-1.958,8.222-1.958
						s-1.566,17.227,1.566,22.316s4.307,5.09,4.307,5.09v31.321c0,0-9.396-2.349-17.227,1.566c-7.83,3.915-8.613,9.788-8.613,9.788
						s-3.524-18.793-11.354-21.533c-7.83-2.741-7.83,14.486-3.524,24.274c4.306,9.788,17.618,14.094,18.792,14.094
						c1.174,0-2.349,3.132-2.349,3.132l10.571-2.741c0,0-5.09,5.873-1.566,5.873c3.524,0,14.877-5.873,14.877-5.873
						s-3.915,4.698,0.783,4.698c4.698,0,11.354-7.047,11.354-7.047s0,3.524,4.307-0.783c4.307-4.307,13.703-3.524,15.66-28.972
						c1.958-25.448,0-57.552,0-57.552S188.658,224.751,165.167,241.586z"/>
				</defs>
				<use xlink:href="#XMLID_5_"  style="overflow:visible;fill:#FFFFFF;"/>
				<clipPath id="XMLID_00000138553209400036509550000012559871298124833695_">
					<use xlink:href="#XMLID_5_"  style="overflow:visible;"/>
				</clipPath>
				<g style="clip-path:url(#XMLID_00000138553209400036509550000012559871298124833695_);">
					<path style="fill:#C6FF00;" d="M168.395,300.112c0,6.688,5.422,12.109,12.109,12.109c6.688,0,12.109-5.422,12.109-12.109
						c0-6.688-5.422-12.109-12.109-12.109C173.817,288.002,168.395,293.424,168.395,300.112z"/>
					<path style="fill:#C6FF00;" d="M161.178,379.664c-6.253,0-11.396,4.739-12.039,10.821l3.5-0.908c0,0-5.09,5.873-1.566,5.873
						c3.524,0,14.877-5.873,14.877-5.873s-3.915,4.698,0.783,4.698c2.045,0,4.46-1.336,6.537-2.844
						C173.087,384.903,167.75,379.664,161.178,379.664z"/>
					
						<ellipse transform="matrix(0.3867 -0.9222 0.9222 0.3867 -209.9806 382.8572)" style="fill:#C6FF00;" cx="182.864" cy="349.304" rx="15.19" ry="15.19"/>
					<path style="fill:#C6FF00;" d="M147.941,290.917c4.749-1.018,6.85-6.143,7.327-7.496c-0.476,1.435-2.403,7.386-3.418,12.581
						c4.756-1.878,8.125-6.505,8.125-11.928c0-6.61-5-12.048-11.423-12.75C144.142,285.539,142.94,291.988,147.941,290.917z"/>
				</g>
				<path style="opacity:0.2;clip-path:url(#XMLID_00000138553209400036509550000012559871298124833695_);" d="M165.167,241.586
					c0,0-5.12,4.327-10.028,13.226c0.151,9.52,1.645,21.063,6.428,32.303c11.141,26.181,26.181,33.423,26.181,33.423
					s3.342,31.194-2.785,47.906c-5.773,15.746-22.428,22.586-42.971,20.063c1.266,0.456,2.159,0.679,2.425,0.679
					c1.174,0-2.349,3.132-2.349,3.132l10.571-2.741c0,0-5.09,5.873-1.566,5.873c3.524,0,14.877-5.873,14.877-5.873
					s-3.915,4.698,0.783,4.698c4.698,0,11.354-7.047,11.354-7.047s0,3.523,4.307-0.783c4.307-4.307,13.703-3.524,15.66-28.972
					c1.958-25.448,0-57.552,0-57.552S188.658,224.751,165.167,241.586z"/>
				
					<use xlink:href="#XMLID_5_"  style="overflow:visible;fill:none;stroke:#263238;stroke-width:1.2035;stroke-linecap:round;stroke-linejoin:round;stroke-miterlimit:10;"/>
			</g>
		</g>
		<g>
			<defs>
				<path id="XMLID_4_" d="M171.576,202.776c0,0-11.197,17.226-31.437,22.394c-20.24,5.168-37.897,3.445-37.466,4.737
					c0.431,1.292,7.321,5.598,7.321,5.598s-6.46-0.431-5.598,1.723c0.861,2.153,6.89,12.058,27.131,17.226
					c20.24,5.168,32.729-21.532,36.605-33.16C172.007,209.667,175.021,201.054,171.576,202.776z"/>
			</defs>
			<use xlink:href="#XMLID_4_"  style="overflow:visible;fill:#FFFFFF;"/>
			<clipPath id="XMLID_00000008831193906329501880000014480895280579441577_">
				<use xlink:href="#XMLID_4_"  style="overflow:visible;"/>
			</clipPath>
			<path style="clip-path:url(#XMLID_00000008831193906329501880000014480895280579441577_);fill:#C6FF00;" d="M111.309,229.108
				c0.92,10.665,9.855,19.039,20.759,19.039c11.515,0,20.85-9.335,20.85-20.85c0-2.372-0.415-4.642-1.144-6.766
				c-3.459,1.902-7.341,3.544-11.634,4.64C128.814,228.062,118.3,228.795,111.309,229.108z"/>
			
				<use xlink:href="#XMLID_4_"  style="overflow:visible;fill:none;stroke:#263238;stroke-width:1.2035;stroke-linecap:round;stroke-linejoin:round;stroke-miterlimit:10;"/>
		</g>
		<g>
			<defs>
				<path id="XMLID_3_" d="M297.402,201.102c0,0,11.197,17.226,31.437,22.393c20.24,5.168,37.897,3.445,37.466,4.737
					c-0.431,1.292-7.321,5.598-7.321,5.598s6.46-0.431,5.598,1.723c-0.861,2.153-6.89,12.058-27.131,17.226
					c-20.24,5.168-32.729-21.532-36.605-33.16C296.972,207.992,293.957,199.379,297.402,201.102z"/>
			</defs>
			<use xlink:href="#XMLID_3_"  style="overflow:visible;fill:#FFFFFF;"/>
			<clipPath id="XMLID_00000131365733011641090850000016234704554319468214_">
				<use xlink:href="#XMLID_3_"  style="overflow:visible;"/>
			</clipPath>
			<path style="clip-path:url(#XMLID_00000131365733011641090850000016234704554319468214_);fill:#C6FF00;" d="M341.481,225.985
				c-0.785,1.998-1.231,4.166-1.231,6.443c0,6.933,4.009,12.914,9.825,15.799c10.301-5.07,13.861-11.057,14.508-12.673
				c0.861-2.153-5.598-1.723-5.598-1.723s6.89-4.307,7.321-5.598C366.643,227.221,355.885,228.057,341.481,225.985z"/>
			<path style="opacity:0.2;clip-path:url(#XMLID_00000131365733011641090850000016234704554319468214_);" d="M322.552,234.197
				c0.484-4.112-0.293-9.064-1.327-13.351c-15.411-6.816-23.823-19.743-23.823-19.743c-3.445-1.723-0.431,6.89,3.445,18.518
				c3.876,11.627,16.365,38.327,36.605,33.16C322.829,252.98,321.439,243.666,322.552,234.197z"/>
			
				<use xlink:href="#XMLID_3_"  style="overflow:visible;fill:none;stroke:#263238;stroke-width:1.2035;stroke-linecap:round;stroke-linejoin:round;stroke-miterlimit:10;"/>
		</g>
		<g>
			
				<path style="fill:#C6FF00;stroke:#263238;stroke-width:1.2035;stroke-linecap:round;stroke-linejoin:round;stroke-miterlimit:10;" d="
				M189.663,180.383c0,0-13.781,2.584-21.102,0c-7.321-2.584-2.153-7.752-5.168-11.628c-3.014-3.876-12.058,3.015-12.919,15.503
				c-0.861,12.489,13.35,19.379,27.992,20.671l17.226-24.547H189.663z"/>
			<g>
				<path style="fill:#263238;" d="M173.152,181.333c-1.606-0.167-3.123-0.455-4.441-0.903c-8.783,5.947-9.192,14.602-8.653,19.212
					c1.049,0.602,2.161,1.154,3.324,1.657C162.705,198.628,160.771,187.504,173.152,181.333z"/>
				<path style="fill:#263238;" d="M164.386,174.191c-6.312,1.434-10.891,4.039-13.655,7.775c-0.116,0.742-0.203,1.506-0.257,2.294
					c-0.119,1.727,0.06,3.344,0.478,4.857c0.215-1.436,0.687-2.989,1.61-4.494c2.167-3.532,6.241-6.014,12.125-7.41
					C164.338,176.266,164.338,175.24,164.386,174.191z"/>
			</g>
		</g>
		<g>
			
				<path style="fill:#C6FF00;stroke:#263238;stroke-width:1.2035;stroke-linecap:round;stroke-linejoin:round;stroke-miterlimit:10;" d="
				M282.335,180.383c0,0,13.781,2.584,21.102,0c7.321-2.584,2.153-7.752,5.168-11.628c3.015-3.876,12.058,3.015,12.919,15.503
				c0.861,12.489-13.35,19.379-27.992,20.671l-17.226-24.547H282.335z"/>
			<g>
				<path style="fill:#263238;" d="M298.846,181.333c1.606-0.167,3.123-0.455,4.441-0.903c8.784,5.947,9.193,14.602,8.653,19.212
					c-1.049,0.602-2.161,1.154-3.324,1.657C309.294,198.628,311.227,187.504,298.846,181.333z"/>
				<path style="fill:#263238;" d="M307.612,174.191c6.312,1.434,10.891,4.039,13.655,7.775c0.116,0.742,0.203,1.506,0.257,2.294
					c0.119,1.727-0.06,3.344-0.478,4.857c-0.215-1.436-0.686-2.989-1.61-4.494c-2.167-3.532-6.241-6.014-12.125-7.41
					C307.66,176.266,307.66,175.24,307.612,174.191z"/>
			</g>
		</g>
		<g>
			<g>
				<defs>
					<ellipse id="XMLID_2_" cx="235.646" cy="242.406" rx="73.4" ry="82.733"/>
				</defs>
				<use xlink:href="#XMLID_2_"  style="overflow:visible;fill:#FFFFFF;"/>
				<clipPath id="XMLID_00000028327045288801922150000005540325863542409149_">
					<use xlink:href="#XMLID_2_"  style="overflow:visible;"/>
				</clipPath>
				<g style="clip-path:url(#XMLID_00000028327045288801922150000005540325863542409149_);">
					<path style="fill:#C6FF00;" d="M200.392,180.142c6.023,0,10.906-4.883,10.906-10.906c0-1.607-0.357-3.129-0.981-4.503
						c-6.662,2.761-12.869,6.58-18.464,11.276C193.852,178.524,196.931,180.142,200.392,180.142z"/>
					<path style="fill:#C6FF00;" d="M199.751,298.187c0-8.858-6.319-16.039-14.114-16.039c-4.497,0-8.495,2.399-11.079,6.122
						c5.249,8.865,11.974,16.522,19.783,22.526C197.63,307.86,199.751,303.309,199.751,298.187z"/>
					<ellipse style="fill:#C6FF00;" cx="240.81" cy="312.943" rx="9.623" ry="8.34"/>
					<path style="fill:#C6FF00;" d="M192.052,234.674c0-14.753-10.1-26.801-22.804-27.549c-4.485,10.704-7.003,22.659-7.003,35.282
						c0,6.732,0.731,13.269,2.077,19.535c1.197,0.21,2.423,0.319,3.672,0.319C181.281,262.26,192.052,249.909,192.052,234.674z"/>
					<path style="fill:#C6FF00;" d="M294.058,253.279c-5.315,0-9.623,4.308-9.623,9.623c0,5.315,4.308,9.623,9.623,9.623
						c5.315,0,9.623-4.308,9.623-9.623C303.682,257.587,299.373,253.279,294.058,253.279z"/>
					<path style="fill:#C6FF00;" d="M298.549,280.224c0,1.13,0.337,2.176,0.898,3.067c1.424-2.817,2.722-5.726,3.85-8.737
						C300.6,275.039,298.549,277.386,298.549,280.224z"/>
					<path style="fill:#C6FF00;" d="M295.104,290.892c-2.376-1.074-5.005-1.687-7.781-1.687c-10.452,0-18.926,8.473-18.926,18.926
						c0,2.64,0.544,5.153,1.521,7.436C279.903,309.612,288.516,301.138,295.104,290.892z"/>
					<path style="fill:#C6FF00;" d="M290.571,187.549c-3.803,4.255-6.135,9.853-6.135,16.009c0,13.069,10.427,23.68,23.412,24.025
						C305.408,212.388,299.296,198.64,290.571,187.549z"/>
				</g>
				<path style="opacity:0.2;clip-path:url(#XMLID_00000028327045288801922150000005540325863542409149_);" d="M276.031,173.33
					c5.03,7.289,12.625,21.177,18.112,44.155c8.913,37.322,1.671,52.919,1.671,52.919l-4.456-11.141c0,0,1.671,13.926-3.342,22.282
					c-5.013,8.356-8.655,14.836-10.455,18.559c-1.8,3.723-1.8-5.19-1.8-5.19s-4.145,11.951-7.364,13.217
					c-3.219,1.266-12.689,6.28-12.689,6.28l0.557-6.685c0,0-13.926,5.57-21.725,5.57c-7.799,0-27.295-2.228-37.879-8.913
					c-6.014-3.798-14.723-9.933-21.125-14.524c13.276,21.326,35.241,35.28,60.11,35.28c40.538,0,73.4-37.041,73.4-82.733
					C309.046,213.535,295.917,188.132,276.031,173.33z"/>
				
					<use xlink:href="#XMLID_2_"  style="overflow:visible;fill:none;stroke:#263238;stroke-width:1.2035;stroke-linecap:round;stroke-linejoin:round;stroke-miterlimit:10;"/>
			</g>
			
				<path style="fill:#FFFFFF;stroke:#263238;stroke-width:1.2035;stroke-linecap:round;stroke-linejoin:round;stroke-miterlimit:10;" d="
				M230.941,163.284c0,0-0.391-1.175-7.047-3.524c-6.656-2.349-14.094,0.783-10.179-2.349c3.915-3.132,17.226-3.524,19.576-1.175
				c2.349,2.349-7.439-3.524-7.439-7.439c0-3.915,11.354-1.958,14.877,1.175c3.524,3.132,4.698,5.481,4.698,5.481
				s-0.391-14.486,6.656-18.009c7.047-3.524,12.528,3.523,9.396,7.439c-3.132,3.915-9.788,10.571-9.788,10.571
				s16.052-5.873,15.269,0.783c-0.783,6.656-16.835,7.047-16.835,7.047"/>
			<g>
				
					<ellipse style="fill:#263238;stroke:#263238;stroke-width:1.2035;stroke-linecap:round;stroke-linejoin:round;stroke-miterlimit:10;" cx="237.401" cy="220.361" rx="20.554" ry="21.325"/>
				
					<ellipse transform="matrix(0.1612 -0.9869 0.9869 0.1612 -16.3076 417.3954)" style="fill:#C6FF00;stroke:#263238;stroke-width:1.2035;stroke-linecap:round;stroke-linejoin:round;stroke-miterlimit:10;" cx="237.401" cy="218.291" rx="20.554" ry="20.554"/>
				
					<circle style="fill:#263238;stroke:#263238;stroke-width:1.2035;stroke-linecap:round;stroke-linejoin:round;stroke-miterlimit:10;" cx="237.401" cy="218.292" r="10.767"/>
			</g>
			
				<path style="fill:#FFFFFF;stroke:#263238;stroke-width:1.2035;stroke-linecap:round;stroke-linejoin:round;stroke-miterlimit:10;" d="
				M212.54,180.902c0,0-11.354,1.958-12.92,6.656c-1.566,4.698,7.047,5.481,7.047,5.481s-10.179,8.613-5.481,11.745
				c4.698,3.132,13.703-8.613,13.703-8.613s10.571,8.222,21.533,8.222c10.962,0,21.924-8.613,21.924-8.613s9.396,10.571,12.92,8.613
				c3.524-1.958-6.264-14.486-6.264-14.486s9.005,1.957,1.566-5.09c-7.439-7.047-15.66-3.915-15.66-3.915"/>
			
				<path style="fill:none;stroke:#263238;stroke-width:1.2035;stroke-linecap:round;stroke-linejoin:round;stroke-miterlimit:10;" d="
				M209.016,244.327c0,0-7.047,3.915-13.311,12.92c-6.264,9.005-4.307,14.486-1.175,14.877c3.132,0.392,13.703-13.311,13.703-13.311
				s-5.09,12.92,1.174,12.137c6.264-0.783,13.703-15.269,13.703-15.269s-0.391,9.005,4.307,8.613
				c4.698-0.392,10.179-16.052,10.179-16.052s2.741,15.66,7.439,15.66s5.09-9.788,5.09-9.788s5.481,17.227,10.179,13.703
				c4.698-3.523,1.566-14.877,1.566-14.877s4.307,23.099,10.179,18.793c5.873-4.307-2.741-22.708-9.005-29.363"/>
			<g>
				<defs>
					<path id="XMLID_1_" d="M260.612,291.31c-2.174,0-4.277-1.16-5.386-3.201c-0.286-0.512-6.151-10.781-17.807-10.781
						c-11.675,0-20.646,11.154-20.733,11.267c-2.072,2.673-5.919,3.161-8.594,1.089c-2.674-2.072-3.161-5.92-1.089-8.594
						c0.507-0.654,12.615-16.013,30.416-16.013c19.13,0,28.208,16.507,28.585,17.21c1.6,2.981,0.479,6.694-2.501,8.293
						C262.582,291.075,261.59,291.31,260.612,291.31z"/>
				</defs>
				<use xlink:href="#XMLID_1_"  style="overflow:visible;fill:#263238;"/>
				<clipPath id="XMLID_00000121263039217319984570000009818184667260400768_">
					<use xlink:href="#XMLID_1_"  style="overflow:visible;"/>
				</clipPath>
				<g style="clip-path:url(#XMLID_00000121263039217319984570000009818184667260400768_);">
					<path style="fill:#FFFFFF;" d="M209.872,277.901l9.324,3.227l-1.066-9.948C214.585,273.471,211.781,275.977,209.872,277.901z"
						/>
					<path style="fill:#FFFFFF;" d="M257.061,272.005l-0.672,11.081l9.141-1.613C264.48,279.756,261.697,275.673,257.061,272.005z"
						/>
				</g>
				<g style="clip-path:url(#XMLID_00000121263039217319984570000009818184667260400768_);">
					<path style="fill:#FFFFFF;" d="M259.913,283.086l-6.031,3.016c0.822,1.089,1.271,1.874,1.344,2.007
						c1.109,2.042,3.212,3.201,5.386,3.201c0.584,0,1.172-0.095,1.748-0.268L259.913,283.086z"/>
					<path style="fill:#FFFFFF;" d="M216.687,288.594c0.024-0.031,0.728-0.905,1.975-2.151l-7.688-4.139l-1.988,7.949
						C211.569,291.621,214.835,290.983,216.687,288.594z"/>
				</g>
				
					<use xlink:href="#XMLID_1_"  style="overflow:visible;fill:none;stroke:#263238;stroke-width:1.2035;stroke-linecap:round;stroke-linejoin:round;stroke-miterlimit:10;"/>
			</g>
			<path style="fill:#FFFFFF;" d="M234.553,212.561c0,3.291-2.668,5.959-5.959,5.959s-5.959-2.668-5.959-5.959
				c0-3.291,2.668-5.959,5.959-5.959S234.553,209.27,234.553,212.561z"/>
		</g>
	</g>
</g>
</svg>
