<?xml version="1.0" encoding="utf-8"?>
<!-- Generator: Adobe Illustrator 27.5.0, SVG Export Plug-In . SVG Version: 6.00 Build 0)  -->
<svg version="1.1" xmlns="http://www.w3.org/2000/svg" xmlns:xlink="http://www.w3.org/1999/xlink" x="0px" y="0px"
	 viewBox="0 0 500 500" style="enable-background:new 0 0 500 500;" xml:space="preserve">
<g id="Background_Simple">
	<g>
		<path style="fill:#C6FF00;" d="M358.816,83.035c-47.757-34.332-129.284-43.201-171.788-28.867
			c-76.732,25.877-89.05,76.172-88.196,121.133c0.854,44.96,58.454,83.567,73.793,122.87c15.339,39.303,43.477,92.127,97.804,75.945
			c54.327-16.181,51.999-74.677,68.459-114.179c16.46-39.502,59.508-80.004,57.176-116.262
			C394.435,118.358,379.924,98.21,358.816,83.035z"/>
		<path style="opacity:0.7;fill:#FFFFFF;" d="M358.816,83.035c-47.757-34.332-129.284-43.201-171.788-28.867
			c-76.732,25.877-89.05,76.172-88.196,121.133c0.854,44.96,58.454,83.567,73.793,122.87c15.339,39.303,43.477,92.127,97.804,75.945
			c54.327-16.181,51.999-74.677,68.459-114.179c16.46-39.502,59.508-80.004,57.176-116.262
			C394.435,118.358,379.924,98.21,358.816,83.035z"/>
	</g>
</g>
<g id="Charts">
	<g>
		<path style="opacity:0.2;" d="M228.596,228.606H97.226c-4.721,0-8.548-3.827-8.548-8.548v-94.802c0-4.721,3.827-8.548,8.548-8.548
			h131.37c4.721,0,8.548,3.827,8.548,8.548v94.802C237.144,224.779,233.317,228.606,228.596,228.606z"/>
		<path style="fill:#FFFFFF;stroke:#263238;stroke-linecap:round;stroke-linejoin:round;stroke-miterlimit:10;" d="M224.918,222.722
			H93.548c-4.721,0-8.548-3.827-8.548-8.548v-94.802c0-4.721,3.827-8.548,8.548-8.548h131.37c4.721,0,8.548,3.827,8.548,8.548
			v94.802C233.466,218.895,229.639,222.722,224.918,222.722z"/>
		<g>
			<g>
				<g>
					<g>
						<path style="fill:#C6FF00;stroke:#263238;stroke-linecap:round;stroke-linejoin:round;stroke-miterlimit:10;" d="
							M133.016,161.978l-31.76,10.319c-5.699-17.541,3.9-36.38,21.441-42.08c3.508-1.14,6.631-1.634,10.319-1.634V161.978z"/>
					</g>
				</g>
				<g>
					<g>
						<path style="fill:#FFFFFF;stroke:#263238;stroke-linecap:round;stroke-linejoin:round;stroke-miterlimit:10;" d="
							M133.016,161.978l19.629,27.017c-14.921,10.841-35.805,7.533-46.646-7.388c-2.168-2.984-3.604-5.801-4.743-9.309
							L133.016,161.978z"/>
					</g>
				</g>
				<g>
					<g>
						<path style="fill:#263238;stroke:#263238;stroke-linecap:round;stroke-linejoin:round;stroke-miterlimit:10;" d="
							M133.016,161.978l31.76-10.32c4.559,14.033-0.195,28.664-12.131,37.336L133.016,161.978z"/>
					</g>
				</g>
				<g>
					<g>
						<path style="fill:#FFFFFF;stroke:#263238;stroke-linecap:round;stroke-linejoin:round;stroke-miterlimit:10;" d="
							M133.016,161.978v-33.395c14.755,0,27.201,9.043,31.76,23.075L133.016,161.978z"/>
					</g>
				</g>
			</g>
			
				<circle style="fill:#FFFFFF;stroke:#263238;stroke-linecap:round;stroke-linejoin:round;stroke-miterlimit:10;" cx="133.048" cy="161.979" r="20.82"/>
		</g>
		<g>
			
				<rect x="175.804" y="126.558" style="fill:#C6FF00;stroke:#263238;stroke-linecap:round;stroke-linejoin:round;stroke-miterlimit:10;" width="45.749" height="3.785"/>
			
				<rect x="175.804" y="134.669" style="fill:#263238;stroke:#263238;stroke-linecap:round;stroke-linejoin:round;stroke-miterlimit:10;" width="35.911" height="3.785"/>
			
				<rect x="175.804" y="142.781" style="fill:#FFFFFF;stroke:#263238;stroke-linecap:round;stroke-linejoin:round;stroke-miterlimit:10;" width="26.391" height="3.785"/>
			
				<rect x="175.804" y="150.893" style="fill:#C6FF00;stroke:#263238;stroke-linecap:round;stroke-linejoin:round;stroke-miterlimit:10;" width="37.498" height="3.785"/>
			
				<rect x="175.804" y="159.004" style="fill:#263238;stroke:#263238;stroke-linecap:round;stroke-linejoin:round;stroke-miterlimit:10;" width="17.823" height="3.785"/>
			
				<rect x="175.804" y="167.116" style="fill:#FFFFFF;stroke:#263238;stroke-linecap:round;stroke-linejoin:round;stroke-miterlimit:10;" width="45.749" height="3.786"/>
			
				<rect x="175.804" y="175.227" style="fill:#C6FF00;stroke:#263238;stroke-linecap:round;stroke-linejoin:round;stroke-miterlimit:10;" width="33.69" height="3.786"/>
			
				<rect x="175.804" y="183.339" style="fill:#263238;stroke:#263238;stroke-linecap:round;stroke-linejoin:round;stroke-miterlimit:10;" width="29.44" height="3.785"/>
			
				<rect x="175.804" y="191.451" style="fill:#FFFFFF;stroke:#263238;stroke-linecap:round;stroke-linejoin:round;stroke-miterlimit:10;" width="45.749" height="3.785"/>
		</g>
		<g>
			
				<line style="fill:none;stroke:#263238;stroke-linecap:round;stroke-linejoin:round;stroke-miterlimit:10;" x1="116.016" y1="202.5" x2="151.484" y2="202.5"/>
			
				<line style="fill:none;stroke:#263238;stroke-linecap:round;stroke-linejoin:round;stroke-miterlimit:10;" x1="111" y1="207.5" x2="156.5" y2="207.5"/>
		</g>
		<g>
			
				<line style="fill:none;stroke:#263238;stroke-linecap:round;stroke-linejoin:round;stroke-miterlimit:10;" x1="177.016" y1="202.5" x2="212.484" y2="202.5"/>
			
				<line style="fill:none;stroke:#263238;stroke-linecap:round;stroke-linejoin:round;stroke-miterlimit:10;" x1="172" y1="207.5" x2="217.5" y2="207.5"/>
		</g>
	</g>
	<g>
		<path style="opacity:0.2;" d="M229.331,373.207H116.504c-4.721,0-8.548-3.827-8.548-8.548v-80.826
			c0-4.721,3.827-8.548,8.548-8.548h112.827c4.721,0,8.548,3.827,8.548,8.548v80.826
			C237.879,369.38,234.052,373.207,229.331,373.207z"/>
		<path style="fill:#FFFFFF;stroke:#263238;stroke-linecap:round;stroke-linejoin:round;stroke-miterlimit:10;" d="M224.918,368.059
			H112.091c-4.721,0-8.548-3.827-8.548-8.548v-80.826c0-4.721,3.827-8.548,8.548-8.548h112.827c4.721,0,8.548,3.827,8.548,8.548
			v80.826C233.466,364.232,229.639,368.059,224.918,368.059z"/>
		<g>
			<g>
				
					<line style="fill:none;stroke:#263238;stroke-linecap:round;stroke-linejoin:round;stroke-miterlimit:10;" x1="112.444" y1="316.692" x2="129.774" y2="316.692"/>
				
					<line style="fill:none;stroke:#263238;stroke-linecap:round;stroke-linejoin:round;stroke-miterlimit:10;" x1="112.444" y1="320.605" x2="139.849" y2="320.605"/>
				
					<line style="fill:none;stroke:#263238;stroke-linecap:round;stroke-linejoin:round;stroke-miterlimit:10;" x1="112.444" y1="324.519" x2="129.774" y2="324.519"/>
				
					<line style="fill:none;stroke:#263238;stroke-linecap:round;stroke-linejoin:round;stroke-miterlimit:10;" x1="112.444" y1="328.432" x2="137.438" y2="328.432"/>
				
					<line style="fill:none;stroke:#263238;stroke-linecap:round;stroke-linejoin:round;stroke-miterlimit:10;" x1="112.444" y1="332.345" x2="129.774" y2="332.345"/>
				
					<line style="fill:none;stroke:#263238;stroke-linecap:round;stroke-linejoin:round;stroke-miterlimit:10;" x1="112.444" y1="336.259" x2="143.063" y2="336.259"/>
			</g>
			<g>
				
					<line style="fill:none;stroke:#263238;stroke-linecap:round;stroke-linejoin:round;stroke-miterlimit:10;" x1="155.841" y1="316.692" x2="173.172" y2="316.692"/>
				
					<line style="fill:none;stroke:#263238;stroke-linecap:round;stroke-linejoin:round;stroke-miterlimit:10;" x1="155.841" y1="320.605" x2="183.247" y2="320.605"/>
				
					<line style="fill:none;stroke:#263238;stroke-linecap:round;stroke-linejoin:round;stroke-miterlimit:10;" x1="155.841" y1="324.519" x2="173.172" y2="324.519"/>
				
					<line style="fill:none;stroke:#263238;stroke-linecap:round;stroke-linejoin:round;stroke-miterlimit:10;" x1="155.841" y1="328.432" x2="180.836" y2="328.432"/>
				
					<line style="fill:none;stroke:#263238;stroke-linecap:round;stroke-linejoin:round;stroke-miterlimit:10;" x1="155.841" y1="332.345" x2="173.172" y2="332.345"/>
				
					<line style="fill:none;stroke:#263238;stroke-linecap:round;stroke-linejoin:round;stroke-miterlimit:10;" x1="155.841" y1="336.259" x2="186.461" y2="336.259"/>
			</g>
			<g>
				
					<line style="fill:none;stroke:#263238;stroke-linecap:round;stroke-linejoin:round;stroke-miterlimit:10;" x1="199.239" y1="316.692" x2="216.569" y2="316.692"/>
				
					<line style="fill:none;stroke:#263238;stroke-linecap:round;stroke-linejoin:round;stroke-miterlimit:10;" x1="199.239" y1="320.605" x2="226.645" y2="320.605"/>
				
					<line style="fill:none;stroke:#263238;stroke-linecap:round;stroke-linejoin:round;stroke-miterlimit:10;" x1="199.239" y1="324.519" x2="216.569" y2="324.519"/>
				
					<line style="fill:none;stroke:#263238;stroke-linecap:round;stroke-linejoin:round;stroke-miterlimit:10;" x1="199.239" y1="328.432" x2="224.233" y2="328.432"/>
				
					<line style="fill:none;stroke:#263238;stroke-linecap:round;stroke-linejoin:round;stroke-miterlimit:10;" x1="199.239" y1="332.345" x2="216.569" y2="332.345"/>
				
					<line style="fill:none;stroke:#263238;stroke-linecap:round;stroke-linejoin:round;stroke-miterlimit:10;" x1="199.239" y1="336.259" x2="229.859" y2="336.259"/>
			</g>
			<rect x="111.326" y="303.835" style="fill:#263238;" width="33.542" height="6.708"/>
			<rect x="155.489" y="303.835" style="fill:#263238;" width="33.542" height="6.708"/>
			<rect x="199.653" y="303.835" style="fill:#263238;" width="33.542" height="6.708"/>
			
				<line style="fill:none;stroke:#263238;stroke-linecap:round;stroke-linejoin:round;stroke-miterlimit:10;" x1="150.095" y1="303.438" x2="150.095" y2="337.392"/>
			
				<line style="fill:none;stroke:#263238;stroke-linecap:round;stroke-linejoin:round;stroke-miterlimit:10;" x1="193.895" y1="303.438" x2="193.895" y2="337.392"/>
		</g>
		<g>
			<g>
				<g>
					<path style="fill:#C6FF00;stroke:#263238;stroke-width:0.5;stroke-miterlimit:10;" d="M125.022,287.93l7.26-2.359
						c1.303,4.01-0.891,8.316-4.901,9.619c-4.009,1.303-8.316-0.892-9.619-4.901c-1.303-4.01,0.891-8.316,4.901-9.619
						c0.802-0.26,1.516-0.374,2.359-0.374V287.93z"/>
				</g>
			</g>
			<g>
				<g>
					<path style="fill:#263238;stroke:#263238;stroke-width:0.5;stroke-miterlimit:10;" d="M125.022,287.93v-7.634
						c3.373,0,6.218,2.067,7.26,5.275L125.022,287.93z"/>
				</g>
			</g>
		</g>
		<g>
			<g>
				<g>
					<path style="fill:#C6FF00;stroke:#263238;stroke-width:0.5;stroke-miterlimit:10;" d="M198.505,287.93l7.26-2.359
						c1.303,4.01-0.891,8.316-4.901,9.619s-8.316-0.892-9.619-4.901c-1.303-4.01,0.891-8.316,4.901-9.619
						c0.802-0.26,1.516-0.374,2.359-0.374V287.93z"/>
				</g>
			</g>
			<g>
				<g>
					<path style="fill:#263238;stroke:#263238;stroke-width:0.5;stroke-miterlimit:10;" d="M198.505,287.93v-7.634
						c3.373,0,6.218,2.067,7.26,5.275L198.505,287.93z"/>
				</g>
			</g>
		</g>
		<g>
			<g>
				<g>
					<path style="fill:#C6FF00;stroke:#263238;stroke-width:0.5;stroke-miterlimit:10;" d="M149.516,287.93v7.633
						c-4.216,0-7.634-3.418-7.634-7.633c0-4.216,3.418-7.634,7.634-7.634l0,0V287.93z"/>
				</g>
			</g>
			<g>
				<g>
					<path style="fill:#263238;stroke:#263238;stroke-width:0.5;stroke-miterlimit:10;" d="M149.516,287.93v-7.634
						c4.216,0,7.633,3.418,7.633,7.634c0,4.216-3.418,7.633-7.633,7.633l0,0V287.93z"/>
				</g>
			</g>
		</g>
		<g>
			<g>
				<g>
					<path style="fill:#C6FF00;stroke:#263238;stroke-width:0.5;stroke-miterlimit:10;" d="M174.011,287.93l7.26,2.359
						c-1.303,4.009-5.609,6.204-9.619,4.901c-4.01-1.303-6.204-5.609-4.901-9.619c1.042-3.208,3.887-5.275,7.26-5.275V287.93z"/>
				</g>
			</g>
			<g>
				<g>
					<path style="fill:#263238;stroke:#263238;stroke-width:0.5;stroke-miterlimit:10;" d="M174.011,287.93v-7.634
						c4.216,0,7.634,3.418,7.634,7.634c0,0.843-0.113,1.557-0.374,2.359L174.011,287.93z"/>
				</g>
			</g>
		</g>
		<g>
			<g>
				<g>
					<path style="fill:#C6FF00;stroke:#263238;stroke-width:0.5;stroke-miterlimit:10;" d="M223,287.93l7.26,2.359
						c-1.303,4.009-5.609,6.204-9.619,4.901s-6.204-5.609-4.901-9.619c1.042-3.208,3.887-5.275,7.26-5.275V287.93z"/>
				</g>
			</g>
			<g>
				<g>
					<path style="fill:#263238;stroke:#263238;stroke-width:0.5;stroke-miterlimit:10;" d="M223,287.93v-7.634
						c4.216,0,7.634,3.418,7.634,7.634c0,0.843-0.113,1.557-0.374,2.359L223,287.93z"/>
				</g>
			</g>
		</g>
		<g>
			<g>
				<g>
					
						<rect x="217.823" y="357.205" style="fill:#C6FF00;stroke:#263238;stroke-width:0.75;stroke-linecap:round;stroke-linejoin:round;stroke-miterlimit:10;" width="6.677" height="2.259"/>
				</g>
			</g>
			<g>
				<g>
					
						<rect x="210.404" y="345.911" style="fill:#263238;stroke:#263238;stroke-width:0.75;stroke-linecap:round;stroke-linejoin:round;stroke-miterlimit:10;" width="6.677" height="13.552"/>
				</g>
			</g>
			<g>
				<g>
					
						<rect x="202.986" y="350.776" style="fill:#FFFFFF;stroke:#263238;stroke-width:0.75;stroke-linecap:round;stroke-linejoin:round;stroke-miterlimit:10;" width="6.677" height="8.688"/>
				</g>
			</g>
			<g>
				<g>
					
						<rect x="195.567" y="344" style="fill:#C6FF00;stroke:#263238;stroke-width:0.75;stroke-linecap:round;stroke-linejoin:round;stroke-miterlimit:10;" width="6.677" height="15.464"/>
				</g>
			</g>
			<g>
				<g>
					
						<rect x="188.148" y="355.467" style="fill:#263238;stroke:#263238;stroke-width:0.75;stroke-linecap:round;stroke-linejoin:round;stroke-miterlimit:10;" width="6.677" height="3.996"/>
				</g>
			</g>
			<g>
				<g>
					
						<rect x="180.73" y="354.251" style="fill:#FFFFFF;stroke:#263238;stroke-width:0.75;stroke-linecap:round;stroke-linejoin:round;stroke-miterlimit:10;" width="6.677" height="5.213"/>
				</g>
			</g>
			<g>
				<g>
					
						<rect x="173.311" y="349.039" style="fill:#C6FF00;stroke:#263238;stroke-width:0.75;stroke-linecap:round;stroke-linejoin:round;stroke-miterlimit:10;" width="6.677" height="10.425"/>
				</g>
			</g>
			<g>
				<g>
					
						<rect x="165.892" y="357.726" style="fill:#263238;stroke:#263238;stroke-width:0.75;stroke-linecap:round;stroke-linejoin:round;stroke-miterlimit:10;" width="6.677" height="1.737"/>
				</g>
			</g>
			<g>
				<g>
					
						<rect x="158.473" y="345.911" style="fill:#FFFFFF;stroke:#263238;stroke-width:0.75;stroke-linecap:round;stroke-linejoin:round;stroke-miterlimit:10;" width="6.677" height="13.552"/>
				</g>
			</g>
			<g>
				<g>
					
						<rect x="151.055" y="348.517" style="fill:#C6FF00;stroke:#263238;stroke-width:0.75;stroke-linecap:round;stroke-linejoin:round;stroke-miterlimit:10;" width="6.677" height="10.946"/>
				</g>
			</g>
			<g>
				<g>
					
						<rect x="143.636" y="358.943" style="fill:#263238;stroke:#263238;stroke-width:0.75;stroke-linecap:round;stroke-linejoin:round;stroke-miterlimit:10;" width="6.677" height="0.521"/>
				</g>
			</g>
			<g>
				<g>
					
						<rect x="136.217" y="358.769" style="fill:#FFFFFF;stroke:#263238;stroke-width:0.75;stroke-linecap:round;stroke-linejoin:round;stroke-miterlimit:10;" width="6.677" height="0.695"/>
				</g>
			</g>
			<g>
				<g>
					
						<rect x="128.799" y="350.776" style="fill:#C6FF00;stroke:#263238;stroke-width:0.75;stroke-linecap:round;stroke-linejoin:round;stroke-miterlimit:10;" width="6.677" height="8.688"/>
				</g>
			</g>
			<g>
				<g>
					
						<rect x="121.38" y="357.726" style="fill:#263238;stroke:#263238;stroke-width:0.75;stroke-linecap:round;stroke-linejoin:round;stroke-miterlimit:10;" width="6.677" height="1.737"/>
				</g>
			</g>
			<g>
				<g>
					
						<rect x="113.961" y="355.989" style="fill:#FFFFFF;stroke:#263238;stroke-width:0.75;stroke-linecap:round;stroke-linejoin:round;stroke-miterlimit:10;" width="6.677" height="3.475"/>
				</g>
			</g>
		</g>
	</g>
	<g>
		<path style="opacity:0.2;" d="M404.946,302.399h-131.37c-4.721,0-8.548-3.827-8.548-8.548v-94.802
			c0-4.721,3.827-8.548,8.548-8.548h131.37c4.721,0,8.548,3.827,8.548,8.548v94.802
			C413.494,298.572,409.667,302.399,404.946,302.399z"/>
		<path style="fill:#FFFFFF;stroke:#263238;stroke-linecap:round;stroke-linejoin:round;stroke-miterlimit:10;" d="M399.798,296.516
			h-131.37c-4.721,0-8.548-3.827-8.548-8.548v-94.802c0-4.721,3.827-8.548,8.548-8.548h131.37c4.721,0,8.548,3.827,8.548,8.548
			v94.802C408.346,292.689,404.519,296.516,399.798,296.516z"/>
		<g>
			<g>
				<g>
					
						<rect x="391.299" y="272.167" style="fill:#C6FF00;stroke:#263238;stroke-width:0.75;stroke-linecap:round;stroke-linejoin:round;stroke-miterlimit:10;" width="7.701" height="8.538"/>
				</g>
			</g>
			<g>
				<g>
					
						<rect x="382.742" y="229.475" style="fill:#263238;stroke:#263238;stroke-width:0.75;stroke-linecap:round;stroke-linejoin:round;stroke-miterlimit:10;" width="7.701" height="51.231"/>
				</g>
			</g>
			<g>
				<g>
					
						<rect x="374.185" y="247.865" style="fill:#FFFFFF;stroke:#263238;stroke-width:0.75;stroke-linecap:round;stroke-linejoin:round;stroke-miterlimit:10;" width="7.701" height="32.84"/>
				</g>
			</g>
			<g>
				<g>
					
						<rect x="365.628" y="222.25" style="fill:#C6FF00;stroke:#263238;stroke-width:0.75;stroke-linecap:round;stroke-linejoin:round;stroke-miterlimit:10;" width="7.701" height="58.455"/>
				</g>
			</g>
			<g>
				<g>
					
						<rect x="357.07" y="265.599" style="fill:#263238;stroke:#263238;stroke-width:0.75;stroke-linecap:round;stroke-linejoin:round;stroke-miterlimit:10;" width="7.701" height="15.106"/>
				</g>
			</g>
			<g>
				<g>
					
						<rect x="348.513" y="261.001" style="fill:#FFFFFF;stroke:#263238;stroke-width:0.75;stroke-linecap:round;stroke-linejoin:round;stroke-miterlimit:10;" width="7.701" height="19.704"/>
				</g>
			</g>
			<g>
				<g>
					
						<rect x="339.956" y="241.297" style="fill:#C6FF00;stroke:#263238;stroke-width:0.75;stroke-linecap:round;stroke-linejoin:round;stroke-miterlimit:10;" width="7.701" height="39.408"/>
				</g>
			</g>
			<g>
				<g>
					
						<rect x="331.399" y="274.137" style="fill:#263238;stroke:#263238;stroke-width:0.75;stroke-linecap:round;stroke-linejoin:round;stroke-miterlimit:10;" width="7.701" height="6.568"/>
				</g>
			</g>
			<g>
				<g>
					
						<rect x="322.842" y="229.475" style="fill:#FFFFFF;stroke:#263238;stroke-width:0.75;stroke-linecap:round;stroke-linejoin:round;stroke-miterlimit:10;" width="7.701" height="51.231"/>
				</g>
			</g>
			<g>
				<g>
					
						<rect x="314.285" y="239.327" style="fill:#C6FF00;stroke:#263238;stroke-width:0.75;stroke-linecap:round;stroke-linejoin:round;stroke-miterlimit:10;" width="7.701" height="41.379"/>
				</g>
			</g>
			<g>
				<g>
					
						<rect x="305.728" y="278.735" style="fill:#263238;stroke:#263238;stroke-width:0.75;stroke-linecap:round;stroke-linejoin:round;stroke-miterlimit:10;" width="7.701" height="1.97"/>
				</g>
			</g>
			<g>
				<g>
					
						<rect x="297.171" y="278.078" style="fill:#FFFFFF;stroke:#263238;stroke-width:0.75;stroke-linecap:round;stroke-linejoin:round;stroke-miterlimit:10;" width="7.701" height="2.627"/>
				</g>
			</g>
			<g>
				<g>
					
						<rect x="288.614" y="247.865" style="fill:#C6FF00;stroke:#263238;stroke-width:0.75;stroke-linecap:round;stroke-linejoin:round;stroke-miterlimit:10;" width="7.701" height="32.84"/>
				</g>
			</g>
			<g>
				<g>
					
						<rect x="280.057" y="274.137" style="fill:#263238;stroke:#263238;stroke-width:0.75;stroke-linecap:round;stroke-linejoin:round;stroke-miterlimit:10;" width="7.701" height="6.568"/>
				</g>
			</g>
			<g>
				<g>
					
						<rect x="271.5" y="267.569" style="fill:#FFFFFF;stroke:#263238;stroke-width:0.75;stroke-linecap:round;stroke-linejoin:round;stroke-miterlimit:10;" width="7.701" height="13.136"/>
				</g>
			</g>
		</g>
		<g>
			<rect x="272.5" y="207.997" style="fill:#C6FF00;stroke:#263238;stroke-miterlimit:10;" width="127" height="6.5"/>
			<rect x="305.958" y="208.473" style="fill:#263238;stroke:#263238;stroke-miterlimit:10;" width="20.595" height="5.548"/>
			<rect x="327.389" y="208.473" style="fill:#FFFFFF;stroke:#263238;stroke-miterlimit:10;" width="38.686" height="5.548"/>
		</g>
	</g>
	<g>
		<path style="opacity:0.2;" d="M388.751,160.16H285.705c-4.721,0-8.548-3.827-8.548-8.548V78.157c0-4.721,3.827-8.548,8.548-8.548
			h103.047c4.721,0,8.548,3.827,8.548,8.548v73.455C397.299,156.333,393.472,160.16,388.751,160.16z"/>
		<path style="fill:#FFFFFF;stroke:#263238;stroke-linecap:round;stroke-linejoin:round;stroke-miterlimit:10;" d="M384.338,154.276
			H281.292c-4.721,0-8.548-3.827-8.548-8.548V72.273c0-4.721,3.827-8.548,8.548-8.548h103.046c4.721,0,8.548,3.827,8.548,8.548
			v73.455C392.887,150.449,389.059,154.276,384.338,154.276z"/>
		<g>
			
				<line style="fill:none;stroke:#263238;stroke-width:0.5;stroke-miterlimit:10;" x1="278.317" y1="145.799" x2="391.117" y2="145.799"/>
			<g>
				<g>
					
						<line style="fill:none;stroke:#263238;stroke-width:0.5;stroke-miterlimit:10;" x1="278.317" y1="145.799" x2="278.317" y2="147.468"/>
					
						<line style="fill:none;stroke:#263238;stroke-width:0.5;stroke-miterlimit:10;" x1="285.837" y1="145.799" x2="285.837" y2="147.468"/>
					
						<line style="fill:none;stroke:#263238;stroke-width:0.5;stroke-miterlimit:10;" x1="293.357" y1="145.799" x2="293.357" y2="147.468"/>
					
						<line style="fill:none;stroke:#263238;stroke-width:0.5;stroke-miterlimit:10;" x1="300.877" y1="145.799" x2="300.877" y2="147.468"/>
					
						<line style="fill:none;stroke:#263238;stroke-width:0.5;stroke-miterlimit:10;" x1="308.397" y1="145.799" x2="308.397" y2="147.468"/>
					
						<line style="fill:none;stroke:#263238;stroke-width:0.5;stroke-miterlimit:10;" x1="315.917" y1="145.799" x2="315.917" y2="147.468"/>
					
						<line style="fill:none;stroke:#263238;stroke-width:0.5;stroke-miterlimit:10;" x1="323.437" y1="145.799" x2="323.437" y2="147.468"/>
					
						<line style="fill:none;stroke:#263238;stroke-width:0.5;stroke-miterlimit:10;" x1="330.957" y1="145.799" x2="330.957" y2="147.468"/>
					
						<line style="fill:none;stroke:#263238;stroke-width:0.5;stroke-miterlimit:10;" x1="338.477" y1="145.799" x2="338.477" y2="147.468"/>
					
						<line style="fill:none;stroke:#263238;stroke-width:0.5;stroke-miterlimit:10;" x1="345.997" y1="145.799" x2="345.997" y2="147.468"/>
					
						<line style="fill:none;stroke:#263238;stroke-width:0.5;stroke-miterlimit:10;" x1="353.517" y1="145.799" x2="353.517" y2="147.468"/>
					
						<line style="fill:none;stroke:#263238;stroke-width:0.5;stroke-miterlimit:10;" x1="361.037" y1="145.799" x2="361.037" y2="147.468"/>
					
						<line style="fill:none;stroke:#263238;stroke-width:0.5;stroke-miterlimit:10;" x1="368.557" y1="145.799" x2="368.557" y2="147.468"/>
					
						<line style="fill:none;stroke:#263238;stroke-width:0.5;stroke-miterlimit:10;" x1="376.077" y1="145.799" x2="376.077" y2="147.468"/>
					
						<line style="fill:none;stroke:#263238;stroke-width:0.5;stroke-miterlimit:10;" x1="383.597" y1="145.799" x2="383.597" y2="147.468"/>
					
						<line style="fill:none;stroke:#263238;stroke-width:0.5;stroke-miterlimit:10;" x1="391.117" y1="145.799" x2="391.117" y2="147.468"/>
				</g>
			</g>
		</g>
		<g>
			<g>
				<path style="fill:#C6FF00;" d="M282.077,144.444h105.28v-14.553l-7.443-14.404c-0.051-0.098-0.086-0.206-0.103-0.319
					l-6.621-42.709c-0.163-1.052-1.467-1.03-1.604,0.027l-6.736,52.14c-0.034,0.264-0.162,0.498-0.353,0.646l-6.491,5.025
					c-0.393,0.305-0.926,0.156-1.158-0.323l-6.535-13.491c-0.273-0.563-0.94-0.649-1.312-0.169l-6.763,8.725l-7.52,9.702
					l-7.52-9.702l-6.625-8.548c-0.408-0.526-1.15-0.363-1.365,0.3l-7.05,21.83l-7.52-38.908l-7.52,42.789l-7.52-5.821l-5.955-16.903
					c-0.338-0.959-1.565-0.678-1.565,0.358V144.444z"/>
			</g>
		</g>
		<g>
			<g>
				<path style="fill:#263238;" d="M387.357,144.468h-105.28v-12.515l7.443-12.387c0.051-0.084,0.086-0.177,0.103-0.274
					l6.621-36.729c0.163-0.905,1.467-0.886,1.604,0.023l6.736,44.839c0.034,0.227,0.163,0.429,0.353,0.556l6.491,4.321
					c0.393,0.262,0.926,0.134,1.158-0.278l6.536-11.602c0.273-0.484,0.94-0.558,1.312-0.145l6.763,7.504l7.52,8.343l7.52-8.343
					l6.625-7.351c0.408-0.452,1.15-0.312,1.365,0.258l7.05,18.773h7.52l7.52,3.337l7.52-5.006l5.955-14.536
					c0.338-0.825,1.565-0.583,1.565,0.308V144.468z"/>
			</g>
		</g>
		<g>
			<g>
				
					<line style="fill:none;stroke:#263238;stroke-linecap:round;stroke-linejoin:round;stroke-miterlimit:10;" x1="339.09" y1="75.802" x2="362.388" y2="75.802"/>
				
					<line style="fill:none;stroke:#263238;stroke-linecap:round;stroke-linejoin:round;stroke-miterlimit:10;" x1="339.09" y1="81.258" x2="362.388" y2="81.258"/>
				
					<line style="fill:none;stroke:#263238;stroke-linecap:round;stroke-linejoin:round;stroke-miterlimit:10;" x1="339.09" y1="86.713" x2="362.388" y2="86.713"/>
				
					<line style="fill:none;stroke:#263238;stroke-linecap:round;stroke-linejoin:round;stroke-miterlimit:10;" x1="339.09" y1="92.169" x2="362.388" y2="92.169"/>
				
					<line style="fill:none;stroke:#263238;stroke-linecap:round;stroke-linejoin:round;stroke-miterlimit:10;" x1="339.09" y1="97.624" x2="362.388" y2="97.624"/>
				
					<line style="fill:none;stroke:#263238;stroke-linecap:round;stroke-linejoin:round;stroke-miterlimit:10;" x1="339.09" y1="103.079" x2="362.388" y2="103.079"/>
			</g>
			<g>
				
					<line style="fill:none;stroke:#263238;stroke-linecap:round;stroke-linejoin:round;stroke-miterlimit:10;" x1="333.794" y1="75.802" x2="336.707" y2="75.802"/>
				
					<line style="fill:none;stroke:#263238;stroke-linecap:round;stroke-linejoin:round;stroke-miterlimit:10;" x1="333.794" y1="81.258" x2="336.707" y2="81.258"/>
				
					<line style="fill:none;stroke:#263238;stroke-linecap:round;stroke-linejoin:round;stroke-miterlimit:10;" x1="333.794" y1="86.713" x2="336.707" y2="86.713"/>
				
					<line style="fill:none;stroke:#263238;stroke-linecap:round;stroke-linejoin:round;stroke-miterlimit:10;" x1="333.794" y1="92.169" x2="336.707" y2="92.169"/>
				
					<line style="fill:none;stroke:#263238;stroke-linecap:round;stroke-linejoin:round;stroke-miterlimit:10;" x1="333.794" y1="97.624" x2="336.707" y2="97.624"/>
				
					<line style="fill:none;stroke:#263238;stroke-linecap:round;stroke-linejoin:round;stroke-miterlimit:10;" x1="333.794" y1="103.079" x2="336.707" y2="103.079"/>
			</g>
		</g>
	</g>
</g>
<g id="Shadow">
	<g>
		<ellipse style="fill:#C6FF00;" cx="247.5" cy="418.5" rx="59.44" ry="29.5"/>
		<ellipse style="opacity:0.5;fill:#FFFFFF;" cx="247.5" cy="418.5" rx="59.44" ry="29.5"/>
	</g>
</g>
<g id="Character">
	<g>
		<path style="fill:#FFFFFF;stroke:#263238;stroke-linecap:round;stroke-linejoin:round;stroke-miterlimit:10;" d="M227.528,196.115
			c0,0-15.255,54.431-15.255,58.626c0,3.565,4.991,10.695,10.516,7.843s6.773-11.764,6.773-11.764L227.528,196.115z"/>
		<path style="fill:#FFFFFF;stroke:#263238;stroke-linecap:round;stroke-linejoin:round;stroke-miterlimit:10;" d="M268.35,419.083
			c0,0-7.807,10.546-8.397,14.973c-0.59,4.427,5.446,4.8,8.102,2.734c2.656-2.066,8.208-15.568,8.208-15.568L268.35,419.083z"/>
		<path style="fill:#FFFFFF;stroke:#263238;stroke-linecap:round;stroke-linejoin:round;stroke-miterlimit:10;" d="M225.73,393.683
			c0,0-13.368,5.615-13.368,8.823s6.951,2.406,12.031,0.535s13.101-5.08,13.101-5.08S229.741,392.881,225.73,393.683z"/>
		<g>
			<path style="fill:#263238;stroke:#263238;stroke-linecap:round;stroke-linejoin:round;stroke-miterlimit:10;" d="
				M229.919,266.684l-0.446,17.379c0,0-3.476,31.817-5.08,48.928c-1.604,17.111,3.476,56.415,3.476,56.415l-2.406,2.406v2.406
				l12.031,3.743c0,0,1.07-5.08,1.07-7.486c0-2.406,0-4.011,0-4.011l12.566-75.13c0,0,9.893,75.932,11.497,84.756
				c1.604,8.823,4.01,18.181,4.01,18.181l-0.802,2.674l1.069,4.813l8.288,2.139c0,0,1.871-2.406,2.406-7.219
				c0.535-4.813,0.802-16.042,0.802-16.042s-0.535-39.036,1.337-65.505c1.872-26.469-0.535-48.928-0.535-48.928l-1.337-17.646
				C277.867,268.555,254.962,277.913,229.919,266.684z"/>
			<g>
				<polyline style="fill:none;stroke:#FFFFFF;stroke-linecap:round;stroke-linejoin:round;stroke-miterlimit:10;" points="
					251.13,311.334 249.793,301.441 244.446,295.827 				"/>
				<path style="fill:none;stroke:#FFFFFF;stroke-linecap:round;stroke-linejoin:round;stroke-miterlimit:10;" d="M269.846,276.309
					c0,0-3.743,6.952,6.417,10.16"/>
				
					<line style="fill:none;stroke:#FFFFFF;stroke-linecap:round;stroke-linejoin:round;stroke-miterlimit:10;" x1="276.263" y1="289.677" x2="276.263" y2="413.201"/>
				<path style="fill:none;stroke:#FFFFFF;stroke-linecap:round;stroke-linejoin:round;stroke-miterlimit:10;" d="M242.574,277.913
					l1.07,6.417c0,0-2.674,4.813-1.604,6.952"/>
			</g>
		</g>
		<path style="fill:#FFFFFF;stroke:#263238;stroke-linecap:round;stroke-linejoin:round;stroke-miterlimit:10;" d="M247.93,189.178
			c0,0-20.046,5.868-20.403,6.937c-0.356,1.069,2.391,70.568,2.391,70.568s5.347,8.199,19.964,9.447
			c14.616,1.248,28.519-6.417,28.519-6.417l9.625-63.277c0,0-22.994-15.686-24.598-16.042
			C261.825,190.038,252.386,187.93,247.93,189.178z"/>
		<path style="fill:#263238;stroke:#263238;stroke-linecap:round;stroke-linejoin:round;stroke-miterlimit:10;" d="M246.548,202.544
			l4.762,11.676l8.142-9.218c0,0-0.614-5.838-5.991-6.452C248.084,197.935,246.548,202.544,246.548,202.544z"/>
		<path style="fill:#FFFFFF;stroke:#263238;stroke-linecap:round;stroke-linejoin:round;stroke-miterlimit:10;" d="M247.93,189.178
			l-8.45,13.366c0,0,4.916-1.229,7.221,0.768c2.304,1.997,4.916,4.148,4.916,4.148s3.994-3.226,7.221-2.151
			c3.226,1.075,6.145,3.38,6.145,3.38s1.997-13.212-0.615-19.204C261.757,183.494,253.461,181.343,247.93,189.178z"/>
		<path style="fill:#FFFFFF;stroke:#263238;stroke-linecap:round;stroke-linejoin:round;stroke-miterlimit:10;" d="M250.081,190.714
			c0,0-0.461,6.76-0.154,11.676c0.307,4.916,1.843,5.992,3.687,2.765c1.843-3.226,5.992-13.058,5.992-15.824
			c0-2.765,0.307-5.223,0.307-5.223S253.461,191.021,250.081,190.714z"/>
		<polygon style="fill:#263238;stroke:#263238;stroke-linecap:round;stroke-linejoin:round;stroke-miterlimit:10;" points="
			251.31,214.219 243.321,254.931 248.698,268.45 255.305,257.389 		"/>
		<g>
			<g>
				<path style="fill:#FFFFFF;stroke:#263238;stroke-linecap:round;stroke-linejoin:round;stroke-miterlimit:10;" d="
					M266.994,251.355c0,0-18.003-10.873-19.607-12.299c-1.604-1.426-1.604-0.357-2.852,0.356c-1.248,0.713-5.882,6.239-6.773,8.021
					c-0.891,1.782-2.317,4.278-0.535,4.634c1.782,0.357,3.208-3.03,3.208-3.565c0-0.535,2.674-3.565,2.674-3.565
					s-2.674,6.417-1.783,6.952c0.891,0.535,6.952,3.03,8.199,3.03s2.139-2.317,2.139-2.317s1.783,2.317,3.565,2.139
					c1.783-0.178,3.03-1.069,3.03-1.069l6.06,4.813L266.994,251.355z"/>
				<path style="fill:#FFFFFF;stroke:#263238;stroke-linecap:round;stroke-linejoin:round;stroke-miterlimit:10;" d="
					M266.994,251.355c0,0-2.241-1.353-5.208-3.166l-2.639,6.187l5.173,4.108L266.994,251.355z"/>
				<path style="fill:none;stroke:#263238;stroke-linecap:round;stroke-linejoin:round;stroke-miterlimit:10;" d="M243.644,253.137
					c0,0,0.535-5.704,2.852-8.912"/>
				<path style="fill:none;stroke:#263238;stroke-linecap:round;stroke-linejoin:round;stroke-miterlimit:10;" d="M246.674,253.85
					c0,0,1.248-4.991,3.743-7.843"/>
			</g>
			<g>
				<path style="fill:#FFFFFF;stroke:#263238;stroke-linecap:round;stroke-linejoin:round;stroke-miterlimit:10;" d="
					M280.54,209.645c0,0-6.773,5.526-8.378,14.438l11.229,31.906c0,0-13.368-5.526-14.973-5.704
					c-1.604-0.178-7.308,7.665-5.704,9.447c1.604,1.782,32.975,19.429,34.936,17.111c1.961-2.317-8.021-65.416-9.091-67.733
					c-1.069-2.317-0.357-3.565-4.1-4.1"/>
				<path style="fill:#FFFFFF;stroke:#263238;stroke-linecap:round;stroke-linejoin:round;stroke-miterlimit:10;" d="
					M283.392,255.989c0,0,6.417,1.426,8.199,4.813"/>
			</g>
		</g>
		<path style="fill:#C6FF00;stroke:#263238;stroke-linecap:round;stroke-linejoin:round;stroke-miterlimit:10;" d="M211.631,229.707
			l14.32,32.02c0.144,0.321,0.406,0.575,0.731,0.709l20.486,8.409c1.105,0.454,2.221-0.624,1.807-1.744l-11.462-30.977
			c-0.408-1.104-1.282-1.972-2.389-2.373l-21.775-7.892C212.212,227.446,211.137,228.602,211.631,229.707z"/>
		<g>
			<path style="fill:#FFFFFF;stroke:#263238;stroke-linecap:round;stroke-linejoin:round;stroke-miterlimit:10;" d="
				M217.022,246.765c-0.864-0.172-1.655,0.527-1.574,1.403c0.047,0.514,0.181,1.012,0.497,1.238
				c0.783,0.559,6.712,1.007,6.488-0.112C222.257,248.418,219.199,247.199,217.022,246.765z"/>
			<path style="fill:#FFFFFF;stroke:#263238;stroke-linecap:round;stroke-linejoin:round;stroke-miterlimit:10;" d="
				M215.151,244.606c-1.024-0.204-1.962,0.624-1.866,1.664c0.056,0.61,0.215,1.2,0.589,1.467c0.928,0.663,7.957,1.194,7.692-0.133
				C221.358,246.565,217.732,245.12,215.151,244.606z"/>
			<path style="fill:#FFFFFF;stroke:#263238;stroke-linecap:round;stroke-linejoin:round;stroke-miterlimit:10;" d="
				M214.594,241.434c-1.114-0.222-2.135,0.679-2.03,1.81c0.061,0.663,0.234,1.306,0.641,1.596c1.01,0.721,8.657,1.299,8.368-0.144
				C221.347,243.566,217.403,241.993,214.594,241.434z"/>
			<path style="fill:#FFFFFF;stroke:#263238;stroke-linecap:round;stroke-linejoin:round;stroke-miterlimit:10;" d="M213.44,238.404
				c-1.114-0.222-2.135,0.679-2.031,1.81c0.061,0.663,0.234,1.306,0.641,1.596c1.01,0.721,8.657,1.298,8.368-0.144
				C220.193,240.536,216.248,238.963,213.44,238.404z"/>
		</g>
		<g>
			<g>
				<path style="fill:#FFFFFF;stroke:#263238;stroke-miterlimit:10;" d="M240.334,167.604c0,0,1.193,12.234,3.879,17.903
					c2.685,5.669,3.581,8.355,6.266,8.355c2.685,0,7.758-3.879,10.145-7.46c2.387-3.581,3.282-5.371,3.282-5.371l0.597-1.492
					c0,0,4.177-2.984,5.073-5.073c0.895-2.089-0.895-3.581-4.177-1.79c0,0,1.194-9.25-1.194-14.919
					C261.818,152.088,243.616,157.459,240.334,167.604z"/>
				<g>
					<path style="fill:#FFFFFF;stroke:#263238;stroke-linecap:round;stroke-linejoin:round;stroke-miterlimit:10;" d="
						M237.076,172.246l20.163,4.118c0,0,0.142,3.124-1.988,4.118c-2.13,0.994-4.828,0.426-6.39-0.994
						c-1.562-1.42-1.562-4.118-1.562-4.118s-1.278-0.994-1.42,0c-0.112,0.787-1.026,3.354-3.938,3.262
						c-1.908-0.06-3.597-1.359-4.238-3.157C237.411,174.652,237.166,173.59,237.076,172.246z"/>
					
						<line style="fill:none;stroke:#263238;stroke-linecap:round;stroke-linejoin:round;stroke-miterlimit:10;" x1="257.24" y1="176.364" x2="265.617" y2="171.962"/>
					
						<line style="fill:none;stroke:#263238;stroke-linecap:round;stroke-linejoin:round;stroke-miterlimit:10;" x1="237.076" y1="172.246" x2="240.342" y2="170.968"/>
					<polyline style="fill:#FFFFFF;stroke:#263238;stroke-linecap:round;stroke-linejoin:round;stroke-miterlimit:10;" points="
						246.022,176.222 244.602,181.476 246.306,181.902 246.732,186.02 249.43,185.31 					"/>
				</g>
			</g>
			<path style="fill:#263238;stroke:#263238;stroke-miterlimit:10;" d="M248.987,147.911c0,0-11.935,9.25-13.129,14.919
				s6.564,8.056,11.637,7.161c5.073-0.895,12.532-5.669,12.532-5.669s-4.177,6.564-0.895,6.863c3.282,0.298,4.476,0,4.476,0
				s-1.79,3.581-0.298,3.581c1.492,0,2.089-2.089,2.089-2.089s4.177-9.847,2.984-18.798
				C267.189,144.927,256.148,142.241,248.987,147.911z"/>
		</g>
	</g>
</g>
</svg>
